<svg width="512" height="512" viewBox="0 0 512 512" fill="none" xmlns="http://www.w3.org/2000/svg">
<path d="M201.74 389.071H219.883C252.478 347.272 374.259 372.07 334.59 512H87.032C47.363 372.07 169.144 347.272 201.74 389.071Z" fill="#6D66AE"/>
<path d="M245.219 373.107C284.755 383.236 321.649 425.745 297.196 512H334.59C366.996 397.692 291.662 360.213 245.219 373.107Z" fill="#42429A"/>
<path d="M210.811 420.408C231.463 420.408 248.205 403.666 248.205 383.014V336.732H173.417V383.014C173.417 403.666 190.159 420.408 210.811 420.408Z" fill="#F6BB93"/>
<path d="M173.417 373.628C196.683 378.939 223.201 380.358 248.205 377.884V336.733H173.417V373.628Z" fill="#E49775"/>
<path d="M82.297 260.108H124.084V196.915H82.297C64.847 196.915 50.701 211.061 50.701 228.511C50.701 245.962 64.847 260.108 82.297 260.108Z" fill="#F6BB93"/>
<path d="M339.325 260.108H297.538V196.915H339.325C356.775 196.915 370.921 211.061 370.921 228.511C370.922 245.962 356.775 260.108 339.325 260.108Z" fill="#F6BB93"/>
<path d="M98.356 247.588C90.564 213.857 79.049 168.898 73.858 146.968C40.483 117.99 33.578 56.741 53.758 13.206C56.667 6.93004 64.684 5.05704 70.052 9.41904C83.315 20.196 109.479 30.416 158.389 12.476C253.638 -22.46 333.847 24.576 338.451 48.659C343.601 48.659 368.614 52.203 368.614 76.8C368.614 97.722 334.23 209.153 319.405 247.589H98.356V247.588Z" fill="#52668D"/>
<path d="M338.451 48.658C334.833 29.732 284.52 -3.36996 216.91 0.279041C267.936 3.38204 304.347 31.706 307.246 48.659C311.853 48.659 334.229 52.203 334.229 76.8C334.229 97.722 303.47 209.153 290.207 247.589H319.404C334.229 209.153 368.613 97.722 368.613 76.8C368.614 52.202 343.601 48.658 338.451 48.658Z" fill="#243B5D"/>
<path d="M92.978 290.193C92.978 373.409 328.645 373.409 328.645 290.193C328.645 242.51 322.268 161.776 308.373 130.393C305.074 122.942 297.901 115.297 292.03 111.788C287.064 108.82 281.856 107.142 276.559 107.142C270.633 107.142 264.851 109.04 259.046 111.788C244.005 118.895 228.832 131.651 210.811 131.651C192.79 131.651 177.617 118.894 162.576 111.788C156.772 109.04 150.989 107.142 145.063 107.142C139.766 107.142 134.558 108.819 129.592 111.788C123.71 115.297 116.528 122.955 113.216 130.426C99.378 161.637 92.978 241.606 92.978 290.193Z" fill="#F6BB93"/>
<path d="M308.373 130.393C305.074 122.942 297.901 115.297 292.03 111.788C287.064 108.82 281.856 107.142 276.559 107.142C272.25 107.142 268.016 108.154 263.795 109.758C264.943 110.345 266.079 111.021 267.201 111.787C272.339 115.296 278.618 122.941 281.505 130.392C293.666 161.775 299.248 242.509 299.248 290.192C299.248 329.954 252.155 350.715 202.973 352.479C264.383 354.407 328.645 333.646 328.645 290.192C328.645 242.511 322.267 161.777 308.373 130.393Z" fill="#E49775"/>
<path d="M267.094 231.592C262.826 231.592 259.368 228.133 259.368 223.866V211.845C259.368 207.577 262.827 204.119 267.094 204.119C271.361 204.119 274.82 207.578 274.82 211.845V223.866C274.82 228.133 271.361 231.592 267.094 231.592Z" fill="#243B5D"/>
<path d="M154.529 231.592C150.262 231.592 146.803 228.133 146.803 223.866V211.845C146.803 207.577 150.262 204.119 154.529 204.119C158.796 204.119 162.255 207.578 162.255 211.845V223.866C162.256 228.133 158.796 231.592 154.529 231.592Z" fill="#243B5D"/>
<path d="M265.779 175.356C274.338 174.814 283.05 176.692 290.026 181.11C293.632 183.394 294.702 188.167 292.42 191.773C290.137 195.379 285.363 196.45 281.759 194.166C273.408 188.876 259.918 189.73 252.3 196.031C249.014 198.749 244.143 198.29 241.422 195.001C238.703 191.712 239.164 186.842 242.451 184.122C248.815 178.86 257.22 175.898 265.779 175.356Z" fill="#243B5D"/>
<path d="M174.462 196.591C172.889 196.591 171.301 196.111 169.93 195.117C161.93 189.31 148.412 189.311 140.412 195.117C136.957 197.621 132.126 196.854 129.621 193.402C127.114 189.948 127.883 185.117 131.336 182.61C144.702 172.912 165.64 172.912 179.007 182.61C182.46 185.117 183.228 189.948 180.722 193.402C179.21 195.484 176.853 196.59 174.462 196.591Z" fill="#243B5D"/>
<path d="M403.787 11.4861C365.277 7.61107 330.009 35.0001 324.272 73.2761C318.372 112.644 344.881 148.876 383.139 155.959C380.202 163.187 375.712 169.715 369.992 175.043C367.289 177.561 369.231 182.088 372.916 181.829C375.292 181.663 377.684 181.336 380.081 180.839C395.865 177.567 408.555 167.638 415.859 154.598C443.72 146.93 465.528 123.042 469.059 92.5741C473.746 52.1281 444.444 15.5771 403.787 11.4861Z" fill="#FDC068"/>
<path d="M403.787 11.486C398.975 11.002 394.214 11.006 389.555 11.458C389.656 11.47 389.757 11.473 389.858 11.486C423.466 15.577 447.687 52.128 443.813 92.574C440.894 123.042 422.867 146.93 399.837 154.598C393.799 167.638 383.31 177.567 370.262 180.839C370.198 180.855 370.133 180.868 370.069 180.883C370.791 181.525 371.769 181.91 372.916 181.829C375.292 181.663 377.684 181.336 380.081 180.839C395.865 177.567 408.555 167.638 415.859 154.598C443.72 146.93 465.528 123.042 469.059 92.574C473.746 52.128 444.444 15.577 403.787 11.486Z" fill="#FCB128"/>
<path d="M112.119 512V473.714C112.119 469.446 115.578 465.988 119.845 465.988C124.112 465.988 127.571 469.447 127.571 473.714V512H112.119ZM309.505 512V473.714C309.505 469.446 306.046 465.988 301.779 465.988C297.511 465.988 294.053 469.447 294.053 473.714V512H309.505Z" fill="#42429A"/>
<path d="M309.505 473.714C309.505 470.567 307.621 467.864 304.921 466.66C304.367 480.185 301.941 495.265 297.196 512H309.504V473.714H309.505Z" fill="#42429A"/>
<path d="M392.642 131.52C388.374 131.52 384.916 128.061 384.916 123.794V122.764C384.916 118.496 388.375 115.038 392.642 115.038C396.909 115.038 400.368 118.497 400.368 122.764V123.794C400.368 128.061 396.909 131.52 392.642 131.52Z" fill="white"/>
<path d="M392.642 109.866C388.374 109.866 384.916 106.407 384.916 102.14V88.516C384.916 81.97 390.242 76.644 396.788 76.644H399.668C403.131 76.644 406.345 75.254 408.718 72.729C411.088 70.207 412.274 66.902 412.058 63.423C411.678 57.306 406.59 52.219 400.475 51.838C394.896 51.482 389.726 54.931 387.92 60.199C386.536 64.236 382.136 66.385 378.105 65.002C374.069 63.618 371.918 59.223 373.302 55.187C377.359 43.357 388.935 35.62 401.433 36.415C415.415 37.283 426.613 48.481 427.481 62.464C427.965 70.244 425.3 77.647 419.979 83.31C414.891 88.722 407.778 91.899 400.368 92.087V102.139C400.368 106.407 396.909 109.866 392.642 109.866Z" fill="white"/>
<path d="M200.862 270.744C202.839 270.726 204.824 271.463 206.346 272.957C214.912 281.371 228.726 281.248 237.14 272.68C240.131 269.637 245.023 269.592 248.067 272.582C251.112 275.572 251.156 280.464 248.165 283.509C233.781 298.154 210.163 298.366 195.519 283.983C192.474 280.994 192.429 276.102 195.419 273.057C196.914 271.534 198.886 270.762 200.862 270.744Z" fill="#243B5D"/>
</svg>
