<svg width="561" height="385" viewBox="0 0 561 385" fill="none" xmlns="http://www.w3.org/2000/svg">
<g clip-path="url(#clip0)">
<path d="M112.1 348.9H561.2C557.8 337.6 515.3 332.1 498.2 328.7C484.2 326 469.9 321.3 459.3 311.3C452.2 304.6 447.8 295.7 444.8 286.6C442 278.2 441.6 267.7 436.1 260.6C427 248.9 411.8 251.6 400.6 244.1C389.4 236.6 383.1 223.3 380.2 210.5C376.1 192.6 381.1 174.4 376.5 156.5C372.1 139.5 359.7 129 346.7 118.3C324 99.6 313.4 73.1 304.5 45.9C293 11 244.6 0 244.6 0H112.1V348.9Z" fill="url(#paint0_linear)"/>
<path d="M210.8 238.1C207.2 238.5 204 240.9 202 244C200.6 246.2 199.7 248.7 199 251.3C198.9 247.1 198.8 242.8 198.6 238.6C205.7 236.1 210.7 229.9 208.9 224.8C205.8 225.1 203 227.2 201.3 229.9C199.9 232.1 199.1 234.6 198.5 237.2C198.3 233.2 198 229.3 197.7 225.4C204.7 222.8 209.6 216.7 207.8 211.7C204.7 212 201.9 214.1 200.2 216.8C198.9 218.9 198.1 221.2 197.5 223.6C197.2 220.3 196.8 217 196.3 213.7C202.2 210.5 205.8 204.3 203.4 200.2C200.8 200.9 198.7 203.2 197.6 205.7C196.5 208.2 196.3 210.9 196.3 213.6C195.9 210.5 195.4 207.4 194.8 204.3C200.1 200.5 202.9 194 200.1 190.2C197.6 191.2 195.8 193.7 195 196.3C194.4 198.2 194.3 200.2 194.4 202.2C193.7 198.8 193 195.5 192.1 192.1C197.5 188.3 200.3 181.8 197.5 178C195 179 193.2 181.5 192.4 184.1C191.7 186.3 191.7 188.5 191.8 190.8C191 187.8 190.1 184.8 189.1 181.9C193.6 178.7 196 173.2 193.6 170C191.5 170.9 189.9 172.9 189.3 175.1C188.7 177 188.7 179.1 188.8 181.2C188 179 187.2 176.8 186.3 174.6C189.7 171.2 190.9 166.3 188.5 163.9C186.8 164.9 185.8 166.9 185.6 168.8C185.4 170.3 185.6 171.9 185.9 173.4C185.4 172.2 184.9 171.1 184.4 169.9C184.6 164.7 182 159.7 178.2 159.6C177.6 161.7 178.2 164.1 179.4 165.9C180.6 167.6 182.3 169 184.1 170.1C184.6 171.2 185.1 172.4 185.5 173.6C182.9 169.4 178.5 166.8 175.3 168.5C175.8 170.7 177.6 172.4 179.6 173.3C181.6 174.2 183.8 174.5 185.9 174.6C186.8 176.9 187.6 179.2 188.4 181.5C185.5 176 179.9 172.6 176 174.6C176.6 177.1 178.6 179.1 181 180.2C183.3 181.3 185.9 181.6 188.5 181.7C189.4 184.6 190.3 187.5 191 190.4C187.5 184.7 181.4 181.3 177 183.6C177.7 186.6 180.1 189 182.9 190.3C185.5 191.5 188.5 191.9 191.4 192.1C192.2 195.3 192.9 198.5 193.5 201.7C190.7 195.1 185 190.6 180 192.2C180.2 195.6 182.3 198.6 185.1 200.6C187.7 202.5 190.8 203.5 194 204.2C194.5 207 194.9 209.8 195.3 212.6C190.2 206.9 182.7 204.4 178.4 207.9C179.8 211 182.9 213 186.2 213.8C189.2 214.5 192.4 214.4 195.4 213.9C195.9 217.6 196.3 221.4 196.6 225.1C191.2 219.6 183.5 217.5 179.4 221.2C181 224.2 184.2 226 187.5 226.7C190.5 227.3 193.7 226.9 196.7 226.3C197 230.2 197.3 234 197.5 237.9C192.9 231.6 185.3 228.3 180.7 231.6C181.9 234.8 184.9 237 188.1 238.1C191.1 239.1 194.4 239.1 197.6 238.9C197.8 243.4 198 247.8 198.2 252.3C194 245 186.2 240.5 180.9 243.5C181.8 247 184.7 249.8 188.1 251.4C191.3 252.8 194.8 253.3 198.3 253.4C198.5 258.1 198.6 262.7 198.8 267.3C198.8 267.5 199.1 267.5 199.1 267.3C199.1 262.9 199.1 258.5 199.1 254.1C207.1 251 212.9 243.9 210.8 238.1Z" fill="url(#paint1_linear)"/>
<path d="M380.7 341.8C381.8 340.3 382.8 338.7 383.7 337C388 328.6 388.4 318.8 387.7 309.4C386.9 298.6 384.8 287.9 381.4 277.6C380.1 273.8 378.4 269.6 374.6 268C371.8 266.8 368.5 267.4 365.5 268.1C353.3 271.1 341.7 276.2 331.2 283C340.6 265 359.4 253.7 370.4 236.6C372 234.2 373.3 231 371.7 228.6C369.9 225.9 365.8 226.6 362.7 227.6C336.2 236.6 312.8 254.5 297.1 277.7C303.8 248.2 332.8 229.8 349.3 204.4C351.8 200.6 353.7 195 350.2 192.1C348.5 190.7 346.1 190.6 343.9 190.7C336.3 191.2 329.1 194 322.3 197.2C297.1 209 274.6 226.5 257 248C261.5 235.2 273.9 226.7 279.2 214.2C280.6 211 281.1 206.6 278.2 204.8C276.5 203.7 274.2 204 272.2 204.5C245.2 211.1 223 258.6 223 258.6C223 258.6 222.4 213.1 220.7 191.7C220 183.1 216.5 161.5 203.1 169.8C188.8 178.6 196.7 267.9 196.7 267.9C196.7 267.9 191.3 225.8 186.2 205.8C184.9 200.7 177.7 189.5 173.5 199.3C172.4 201.8 172.4 204.7 172.7 207.5C175.4 231.4 187.8 272 187.8 272C187.8 272 163.8 207.7 156.7 194.5C149.6 181.3 140.2 168.8 127.1 161.4C109.1 151.2 89.1 160.5 87.2 183.3C83.2 229.7 165.8 322.2 182.5 339.1C141.4 278.2 54.6 237.1 30.8 255.4C27.4 258 21.4 263.7 25.4 276.2C29.3 288.3 78.4 341.8 108.8 341.8C159.8 341.8 380.7 341.8 380.7 341.8Z" fill="#E4E3FF"/>
<path d="M183 341.8H192.1C185.4 325.1 175.8 298.8 162.5 268C132.2 197.9 100 150.6 100 150.6C92.2001 154.4 75.7001 168.6 74.0001 180.2C69.0001 215.3 183 341.8 183 341.8Z" fill="url(#paint2_linear)"/>
<path d="M176.9 195.1C176.9 195.1 187.7 232.8 193.8 281.2C199.7 328.8 201.6 342.5 201.6 342.5L187.5 269.7L166 197.9L176.9 195.1Z" fill="url(#paint3_linear)"/>
<path d="M209.3 167.6C209.3 167.6 206.4 319.3 213.4 341.9C220.4 364.5 205.8 341.4 205.8 341.4L196.4 264.2L189.2 170.6L209.3 167.6Z" fill="url(#paint4_linear)"/>
<path d="M278.2 204.8C278.2 204.8 254.5 222.2 242.2 248.2C216.8 302.1 216 342.5 216 342.5C216 342.5 212.6 300.5 223.2 255.9C233.8 211.3 275.5 179.3 275.5 179.3L278.2 204.8Z" fill="url(#paint5_linear)"/>
<path d="M242 341.8C242 341.8 250.4 297.1 269.7 264.1C304.6 204.4 350.2 192.1 350.2 192.1C350.2 192.1 371.7 168.5 348.8 174.6C325.9 180.7 269.4 224.9 256.9 247.9C239.2 280.4 228.2 322 235.4 344.9C242.6 368 242 341.8 242 341.8Z" fill="url(#paint6_linear)"/>
<path d="M266.5 342.6C266.5 342.6 294.9 294.1 322.2 269.5C349.5 244.9 371.7 228.6 371.7 228.6C371.7 228.6 376.2 214.6 370.8 214.6C365.4 214.6 347.4 222.6 347.4 222.6L306.3 259.6L297.2 277.7C297.1 277.8 276.1 309.1 266.5 342.6Z" fill="url(#paint7_linear)"/>
<path d="M181.4 286.1C187.1 279.6 188.8 270.6 184.2 266.5C181.2 268.6 179.5 272.2 179.2 275.9C179 278.5 179.4 281.2 180.1 283.7C178 280 175.9 276.3 173.7 272.7C178.7 267.1 180.2 259.3 176.2 255.7C173.6 257.5 172.2 260.6 171.9 263.8C171.7 266.4 172.2 269 172.9 271.5C170.9 268.1 168.7 264.8 166.6 261.5C171.5 255.9 173 248.2 169 244.7C166.4 246.5 165 249.6 164.7 252.8C164.5 255.2 164.9 257.7 165.6 260.1C163.8 257.3 161.9 254.6 159.9 252C163.6 246.4 163.8 239.2 159.7 236.7C157.7 238.6 157 241.5 157.2 244.3C157.4 247 158.5 249.5 159.7 251.8C157.8 249.3 155.9 246.8 154 244.4C156.9 238.5 156.3 231.5 152 229.5C150.2 231.6 149.8 234.6 150.4 237.3C150.8 239.2 151.6 241 152.6 242.7C150.4 240.1 148.1 237.5 145.8 235C148.7 229.1 148.1 222.1 143.8 220.1C142 222.2 141.6 225.2 142.2 227.9C142.6 230.1 143.7 232.1 144.9 234C142.8 231.8 140.6 229.6 138.3 227.5C140.8 222.5 140.2 216.6 136.6 214.9C135.1 216.7 134.8 219.2 135.2 221.5C135.6 223.5 136.6 225.3 137.7 227C136 225.4 134.2 223.9 132.4 222.4C133.8 217.8 132.5 212.9 129.2 212C128.2 213.7 128.2 215.9 128.9 217.7C129.4 219.1 130.3 220.4 131.4 221.6C130.4 220.8 129.4 220 128.4 219.2C126.1 214.5 121.5 211.4 118.1 213.1C118.5 215.3 120.2 217.1 122.2 218.1C124.1 219.1 126.2 219.4 128.3 219.6C129.3 220.4 130.2 221.2 131.2 221.9C126.9 219.4 121.8 219.3 119.8 222.3C121.3 224 123.6 224.6 125.9 224.5C128.1 224.4 130.1 223.6 132.1 222.6C134 224.2 135.8 225.8 137.6 227.5C132.5 224 125.9 223.7 123.4 227.3C125.1 229.2 127.9 230 130.5 229.9C133.1 229.8 135.5 228.8 137.8 227.7C140 229.8 142.1 231.9 144.1 234.1C138.3 230.7 131.3 230.6 128.6 234.7C130.7 237 133.9 237.9 137 237.8C139.9 237.6 142.7 236.6 145.3 235.4C147.5 237.8 149.7 240.3 151.7 242.9C146.1 238.4 138.9 237.2 135.3 240.9C137.1 243.8 140.4 245.4 143.8 245.9C147 246.3 150.2 245.7 153.3 244.9C155 247.1 156.7 249.4 158.4 251.7C151.2 249.1 143.4 250.4 141.3 255.5C144 257.5 147.7 257.8 151 257C154 256.2 156.7 254.6 159.2 252.7C161.4 255.8 163.5 258.9 165.6 262C158.2 259.7 150.4 261.5 148.6 266.8C151.4 268.7 155.1 268.8 158.4 267.8C161.3 266.9 163.9 265.1 166.3 263.1C168.4 266.3 170.5 269.6 172.5 272.9C165.4 269.5 157.2 270.2 154.7 275.3C157.3 277.5 160.9 278.1 164.3 277.5C167.4 276.9 170.3 275.4 173 273.7C175.3 277.5 177.6 281.4 179.9 285.2C172.7 280.7 163.8 280.5 160.5 285.6C163 288.3 166.9 289.4 170.5 289.1C174 288.9 177.3 287.6 180.4 286C182.8 290 185.1 294.1 187.4 298.1C187.5 298.3 187.8 298.1 187.7 297.9C185.6 293.8 183.5 289.9 181.4 286.1Z" fill="url(#paint8_linear)"/>
<path d="M348.1 222.3C348.8 221.6 349.6 220.9 350.3 220.3C352 220 353.8 219.6 355.3 218.7C356.9 217.7 358.2 216.1 358.5 214.3C355.6 213.1 351.8 215.9 350.1 220C349.3 220.7 348.5 221.3 347.8 222C348.6 221 349.2 219.9 349.6 218.7C350.1 217.1 350 215.3 349.1 213.9C346.4 214.9 345.6 219.1 347 222.8C345.6 224.1 344.2 225.5 342.8 226.9C343.6 225.4 344.3 223.8 344.6 222.2C344.9 220.3 344.5 218.2 343.1 216.7C340.2 218.3 340 223.3 342.3 227.4C340.5 229.2 338.8 231.1 337.1 233.1C338 231.5 338.7 229.8 338.9 228C339.2 225.7 338.7 223.2 337.1 221.5C333.6 223.4 333.4 229.3 336.2 234.2C334.4 236.4 332.7 238.6 331 240.9C331.7 239.5 332.3 238 332.5 236.4C332.8 234.1 332.3 231.6 330.7 229.9C327.2 231.8 327 237.7 329.7 242.5C328.2 244.6 326.8 246.7 325.4 248.8C326.3 246.8 327 244.7 327 242.6C327.1 240.3 326.3 237.9 324.5 236.4C321.2 238.7 321.7 244.7 325.1 249.2C323.6 251.5 322.2 253.8 320.8 256.2C321.2 254.2 321.4 252.2 321.1 250.3C320.7 247.7 319.4 245.1 317.1 243.7C313.9 246.9 315.5 253.3 319.9 257.7C318.3 260.5 316.7 263.4 315.2 266.3C315.7 264.2 315.9 262.1 315.6 260C315.2 257.4 313.9 254.8 311.6 253.4C308.4 256.6 310 263.1 314.5 267.5C312.9 270.6 311.3 273.8 309.8 277C310.2 274.9 310.4 272.7 310.1 270.6C309.7 267.5 308.1 264.5 305.4 262.9C301.7 266.6 303.6 274.1 308.7 279.3C307.1 282.7 305.5 286.1 304 289.4C303.9 289.6 304.2 289.7 304.3 289.6C306.1 286.1 307.9 282.6 309.7 279.1C312.4 280.2 315.2 281.2 318.1 281.2C321.2 281.2 324.4 280.1 326.4 277.7C323.4 273.6 316 274.2 310.1 278.2C311.8 274.9 313.5 271.6 315.3 268.3C317.6 269.6 320.1 270.7 322.8 271C325.6 271.3 328.7 270.7 330.7 268.7C328.3 264.6 321.5 264.4 315.7 267.5C317.2 264.7 318.8 261.8 320.4 259C322.5 260.5 324.7 261.9 327.2 262.5C330 263.2 333.1 262.9 335.4 261.2C333.6 256.9 327 255.8 320.9 258C322.5 255.3 324.1 252.6 325.8 249.9C328 251.3 330.3 252.5 332.9 253C335.7 253.5 338.8 253.1 341 251.2C339 247 332.4 246.3 326.5 248.8C327.8 246.8 329.1 244.9 330.4 242.9C333 243.5 335.8 243.8 338.4 243.3C341.2 242.8 343.9 241.2 345.3 238.7C342.1 235.8 336.3 237.1 331.8 241C333.4 238.8 335 236.7 336.7 234.6C339 235.5 341.3 236.2 343.8 236.2C346.4 236.2 349.1 235.2 350.7 233.2C348.2 229.9 342.5 230.3 337.7 233.4C339.3 231.5 340.9 229.6 342.6 227.8C344.6 228.6 346.7 229.3 348.9 229.3C351.1 229.3 353.4 228.5 354.7 226.8C352.5 223.9 347.1 224.4 343 227.5C344.4 226.1 345.8 224.6 347.2 223.3C348.9 224 350.7 224.5 352.5 224.5C354.4 224.5 356.3 223.8 357.5 222.3C355.8 219.7 351.6 220 348.1 222.3Z" fill="url(#paint9_linear)"/>
<path d="M241.5 189.2C243.5 188.4 245.3 186.8 246 184.7C242.8 182.8 238.1 185.3 235.4 189.7C236.1 187.9 236.9 186 237.7 184.2C239.5 184.2 241.4 184.1 243 183.4C244.7 182.7 246.3 181.3 246.8 179.5C244.2 178 240.5 179.8 238.1 183.2C238.5 182.3 239 181.4 239.4 180.5C240.9 179.6 242.4 178.6 243.5 177.2C244.6 175.7 245.3 173.7 244.8 171.9C241.6 171.9 239.2 175.8 239.1 180.3C238.6 181.2 238.2 182.1 237.7 183.1C238 181.9 238.2 180.7 238.1 179.4C238 177.7 237.2 176 235.8 175.1C233.6 177 234.4 181.2 237.1 184.2C236.3 186 235.5 187.7 234.8 189.5C235 187.8 235.1 186.1 234.7 184.5C234.2 182.6 233.1 180.8 231.3 180C229.2 182.6 230.9 187.3 234.5 190.2C233.5 192.6 232.7 195 231.9 197.4C232.1 195.6 232.1 193.7 231.7 191.9C231.1 189.7 229.8 187.5 227.7 186.5C225.2 189.6 227.2 195.1 231.5 198.6C230.6 201.3 229.9 204 229.2 206.7C229.3 205.1 229.3 203.6 228.9 202C228.3 199.8 227 197.6 224.9 196.6C222.4 199.7 224.4 205.2 228.7 208.7C228.1 211.1 227.6 213.6 227.1 216.1C227.2 214 227 211.8 226.3 209.8C225.5 207.6 223.9 205.7 221.7 204.9C219.5 208.3 222.2 213.6 227 216.6C226.5 219.3 226 222 225.6 224.7C225.2 222.7 224.7 220.8 223.7 219.1C222.4 216.8 220.2 214.9 217.5 214.5C215.7 218.6 219.6 224 225.3 226.5C224.8 229.7 224.4 233 224.1 236.2C223.8 234.1 223.2 232.1 222.1 230.2C220.8 227.9 218.6 226 215.9 225.6C214.1 229.8 218.1 235.2 223.9 237.6C223.5 241.1 223.3 244.6 223 248.1C222.6 246 222 243.9 220.9 242.1C219.4 239.4 216.8 237.2 213.7 236.7C211.6 241.5 216.1 247.7 222.8 250.7C222.6 254.4 222.4 258.2 222.2 261.9C222.2 262.1 222.5 262.1 222.5 261.9C222.9 258 223.2 254.1 223.6 250.2C226.5 250.3 229.5 250.1 232.2 249C235.1 247.9 237.7 245.7 238.6 242.7C234.3 240 227.6 243.3 223.7 249.2C224 245.5 224.4 241.8 224.8 238C227.5 238.3 230.2 238.4 232.7 237.8C235.5 237.1 238.1 235.3 239.2 232.7C235.5 229.8 229 232.1 224.8 237.2C225.1 234 225.5 230.8 226 227.6C228.5 228.2 231.1 228.7 233.7 228.3C236.5 227.9 239.3 226.5 240.8 224.1C237.5 220.8 231 222.2 226.2 226.5C226.6 223.4 227.1 220.3 227.7 217.2C230.3 217.7 232.9 218 235.4 217.5C238.2 217 240.9 215.4 242.3 212.9C238.9 209.8 232.5 211.5 227.9 216C228.3 213.7 228.8 211.4 229.3 209.1C232 208.6 234.6 207.9 236.9 206.5C239.3 205 241.3 202.5 241.6 199.7C237.5 198.2 232.6 201.6 229.9 206.8C230.5 204.2 231.2 201.6 232 199.1C234.4 199.1 236.9 198.9 239.1 198C241.5 197 243.6 195.1 244.4 192.6C240.9 190.5 235.7 193 232.4 197.6C233.2 195.2 234 192.9 234.9 190.6C237.3 190.2 239.5 190 241.5 189.2Z" fill="url(#paint10_linear)"/>
<path d="M393.8 199.4L392.9 207.8L399.8 205.2L393.8 199.4Z" stroke="url(#paint11_linear)" stroke-miterlimit="10"/>
<path d="M219.3 161L227.4 158.8L222.5 153.3L219.3 161Z" stroke="url(#paint12_linear)" stroke-miterlimit="10"/>
<path d="M153.5 201.4L151 209.4L158.2 208.2L153.5 201.4Z" stroke="url(#paint13_linear)" stroke-miterlimit="10"/>
<path d="M153.4 95.3L145 94.8L147.9 101.6L153.4 95.3Z" stroke="url(#paint14_linear)" stroke-miterlimit="10"/>
<path d="M245.56 72.83L236.212 67.0319L230.414 76.3797L239.762 82.1778L245.56 72.83Z" stroke="url(#paint15_linear)" stroke-miterlimit="10"/>
<path d="M366 146.1L362.9 146.2L362.7 143.1L365.8 143L366 146.1Z" fill="url(#paint16_linear)"/>
<path d="M144.2 176.8L135.6 180.8L131.6 172.2L140.1 168.2L144.2 176.8Z" fill="url(#paint17_linear)"/>
<path d="M361.9 199L356.2 197.3L357.8 191.5L363.6 193.2L361.9 199Z" fill="url(#paint18_linear)"/>
<path d="M343.763 133.613L337.819 134.434L338.64 140.377L344.584 139.556L343.763 133.613Z" stroke="url(#paint19_linear)" stroke-miterlimit="10"/>
<path d="M147.1 154.7C148.205 154.7 149.1 153.805 149.1 152.7C149.1 151.595 148.205 150.7 147.1 150.7C145.996 150.7 145.1 151.595 145.1 152.7C145.1 153.805 145.996 154.7 147.1 154.7Z" fill="url(#paint20_linear)"/>
<path d="M128.5 61.2C129.605 61.2 130.5 60.3046 130.5 59.2C130.5 58.0954 129.605 57.2 128.5 57.2C127.395 57.2 126.5 58.0954 126.5 59.2C126.5 60.3046 127.395 61.2 128.5 61.2Z" fill="url(#paint21_linear)"/>
<path d="M369.8 254.2C370.905 254.2 371.8 253.305 371.8 252.2C371.8 251.095 370.905 250.2 369.8 250.2C368.695 250.2 367.8 251.095 367.8 252.2C367.8 253.305 368.695 254.2 369.8 254.2Z" fill="url(#paint22_linear)"/>
<path d="M198 339.5L168.9 341.7L162.3 257L191.3 254.7L198 339.5Z" fill="#FDC068"/>
<path opacity="0.55" d="M195.72 310.996L166.708 313.265L167.597 324.631L196.609 322.362L195.72 310.996Z" fill="#ABBDFF"/>
<path opacity="0.55" d="M196.774 325.393L167.761 327.662L168.136 332.447L197.148 330.178L196.774 325.393Z" fill="#ABBDFF"/>
<path d="M162.3 257H137V340.6H162.3V257Z" fill="#AA94C3"/>
<path opacity="0.55" d="M162.3 317.8H137V329.6H162.3V317.8Z" fill="#ABBDFF"/>
<path opacity="0.55" d="M162.3 332.5H137V337.1H162.3V332.5Z" fill="#ABBDFF"/>
<path d="M136.9 257H101.6V340.6H136.9V257Z" fill="#B3A6EB"/>
<path opacity="0.75" d="M136.9 270.3H101.6V275.4H136.9V270.3Z" fill="#C5CFFC"/>
<path opacity="0.75" d="M136.9 325.1H101.6V329.7H136.9V325.1Z" fill="#C5CFFC"/>
<path d="M178.1 341.6C178.1 341.6 168.3 256.1 204.6 216.8C231.4 187.8 267.8 186 292.6 190.5C367.3 204.1 342.4 340.7 342.4 340.7" fill="#6D66AE"/>
<path d="M326.3 221.9C321.1 212.4 310.1 196.3 273.9 196.8C241.5 197.2 224.2 231.6 220.8 238.3C220.4 239.1 220.2 239.5 220.2 239.5L212.7 341.6H333.5C333.5 341.6 331.5 231.4 326.3 221.9Z" fill="#FFEEFC"/>
<path d="M250.4 208.9C275.6 200.1 297.7 201.6 321.2 214.2" stroke="#F4DCE9" stroke-width="2" stroke-miterlimit="10"/>
<path d="M251.5 213.2C262.8 208.5 275.2 207.4 287.4 208C299.6 208.7 311.6 211.2 323.5 213.7" stroke="#F4DCE9" stroke-width="2" stroke-miterlimit="10"/>
<path d="M246.5 219.7C271.3 212.8 297.8 211.9 323 217" stroke="#F4DCE9" stroke-width="2" stroke-miterlimit="10"/>
<path d="M252 222.1C269.1 219.4 286.3 218.1 303.6 218.1C312.7 218.1 322.1 218.5 330.5 222.2" stroke="#F4DCE9" stroke-width="2" stroke-miterlimit="10"/>
<path d="M247.5 227.4C274.1 221.9 301.8 221.7 328.5 226.6" stroke="#F4DCE9" stroke-width="2" stroke-miterlimit="10"/>
<path d="M246 231.5C274.8 229.9 303.7 230 332.5 231.6" stroke="#F4DCE9" stroke-width="2" stroke-miterlimit="10"/>
<path d="M254 238.7C279.7 237.7 305.4 238.1 331 239.8" stroke="#F4DCE9" stroke-width="2" stroke-miterlimit="10"/>
<path d="M255 244.3C282.1 248.3 309.7 248.9 337 246.3" stroke="#F4DCE9" stroke-width="2" stroke-miterlimit="10"/>
<path d="M256 251.6C281 253.2 306 253.9 331 253.5" stroke="#F4DCE9" stroke-width="2" stroke-miterlimit="10"/>
<path d="M253 257.2C278.8 262.3 305.5 263 331.6 259.4" stroke="#F4DCE9" stroke-width="2" stroke-miterlimit="10"/>
<path d="M257 268.9C279.3 270.9 301.7 271.8 324 271.6" stroke="#F4DCE9" stroke-width="2" stroke-miterlimit="10"/>
<path d="M250.5 277C276.8 278.9 303.2 279.4 329.5 278.6" stroke="#F4DCE9" stroke-width="2" stroke-miterlimit="10"/>
<path d="M244.5 281.9C274 283.7 303.5 284.3 333 283.6" stroke="#F4DCE9" stroke-width="2" stroke-miterlimit="10"/>
<path d="M254.5 291.2C281.3 291.2 308.2 291.2 335 291.2" stroke="#F4DCE9" stroke-width="2" stroke-miterlimit="10"/>
<path d="M244 295.7C273.3 296.7 302.7 297.8 332 298.8" stroke="#F4DCE9" stroke-width="2" stroke-miterlimit="10"/>
<path d="M252.5 303C281 305.1 309.5 306.7 338 307.6" stroke="#F4DCE9" stroke-width="2" stroke-miterlimit="10"/>
<path d="M246.5 310.2C275.5 310.3 304.5 311 333.5 312.5" stroke="#F4DCE9" stroke-width="2" stroke-miterlimit="10"/>
<path d="M256 321.7C280.8 319.6 305.8 320 330.5 322.8" stroke="#F4DCE9" stroke-width="2" stroke-miterlimit="10"/>
<path d="M253 330.2C279.2 330.2 305.3 330.2 331.5 330.2" stroke="#F4DCE9" stroke-width="2" stroke-miterlimit="10"/>
<path d="M267 336C287 336.2 307 336.4 327 336.6" stroke="#F4DCE9" stroke-width="2" stroke-miterlimit="10"/>
<path d="M249.5 206C250 204.7 251.5 204.1 252.8 203.7C270.6 197.6 293 198.4 310.3 205.7" stroke="#F4DCE9" stroke-width="2" stroke-miterlimit="10"/>
<g opacity="0.4">
<path opacity="0.4" d="M259.8 199.2L260.5 200.2C264.6 200.7 272 201.9 277.4 207.2C279 208.8 281 210 283.2 210.6C285.4 211.2 287.9 210.9 289.4 209.2C290.2 208.3 290.6 207 290.9 205.8C291.4 203.2 291.1 200.6 290.3 198.1C290.3 198 290.3 198 290.2 197.9C285.4 197.1 280 196.7 273.9 196.8C268.9 196.8 264.2 197.7 259.8 199.2Z" fill="#F4DCE9"/>
</g>
<path d="M402.8 245.7C408.1 241.3 412.7 236.2 416.6 230.5C417.3 229.4 423.9 217.9 423.3 217.7C421.8 217.1 415.6 225.5 415.6 225.5C415.6 225.5 423.3 214.8 421.6 213.8C420.9 213.4 413.2 223.7 413.2 223.7C413.2 223.7 420.8 213 419.3 212C418.5 211.5 410.6 222.2 410.6 222.2C410.6 222.2 417.2 211.9 415.9 211.2C414.7 210.6 407 220.7 403.6 226.1C400.2 231.5 398.2 243 398.2 243" fill="url(#paint23_linear)"/>
<path d="M398.2 236.9C399 233.3 399.9 229.7 401.2 226.2C402.5 222.7 404.2 219.4 406.6 216.5C406.9 216.2 407.4 215.8 407.7 216.2C407.8 216.3 407.8 216.5 407.8 216.7C407.8 217.7 407.4 218.7 407.1 219.6C406.9 220.2 406.6 220.8 406.4 221.4C406 222.3 405.7 223.4 406 224.3C406.1 224.7 406.4 225 406.6 225.4C408.7 228.7 409.2 235.1 403.5 239.7" fill="url(#paint24_linear)"/>
<path d="M406.2 224.7C408.2 228.7 407.5 232.8 404.8 236.2C404.7 236.3 404.9 236.5 405 236.4C408.3 233.2 408.6 228.4 406.4 224.5C406.4 224.5 406.2 224.6 406.2 224.7Z" fill="#F49E87"/>
<path d="M408.9 221.4C411.7 223 414.2 224.9 416.9 226.8C417 226.9 417.2 226.7 417.1 226.6C414.8 224.3 411.9 222.6 408.9 221.4C408.9 221.4 408.9 221.3 408.9 221.4Z" fill="#F49E87"/>
<path d="M302.2 200.7C302.2 200.7 322.8 208 336.2 226C347 240.6 361.9 278.3 361.9 278.3L397.9 235.6C397.9 235.6 402.9 237.3 406.6 243.6C406.6 247.6 376.9 320.2 359.9 319.9C342.9 319.6 313.7 282.9 313.7 282.9" fill="#FDC068"/>
<path opacity="0.45" d="M323.3 294.2C330.5 301.9 340.5 311.6 349.6 316.6C345.8 305.4 340.4 284.4 335.6 245.6L325.7 284.4L323.3 294.2Z" fill="#CC729B"/>
<path d="M275.2 342.6C277.5 258.2 261.3 198.7 261.3 198.7C261.3 198.7 240.8 203.3 219.9 226.5C208.8 239.4 219.8 248 216.2 268.7C209.7 307 205.2 342.6 205.2 342.6H275.2Z" fill="#FDC068"/>
<path opacity="0.45" d="M216.3 268.7C210.3 303.8 206.1 336.7 205.4 341.9C239.4 342.2 261.5 330.9 269.3 324.5C271.2 324.5 274.7 324.6 275.5 324.7V319.5C275.1 314.7 272.1 310.9 272.1 310.9L230.2 308.4C230.2 308.4 249.5 271.3 249.5 253.7C249.5 253.6 222.8 230.4 216.3 268.7Z" fill="#2A1EA1"/>
<path d="M248 205.1C248 205.1 250.4 233.6 250.4 241.3C252.3 243.2 260.9 246 260.9 246C260.9 246 254.2 249.3 254.2 251.5C254.2 253.7 272 297.1 275.5 316.6" stroke="url(#paint25_linear)" stroke-miterlimit="10"/>
<path d="M335.8 247.2C338.5 276.3 341.6 342.6 341.6 342.6H303.3C307.7 253.6 302.3 201.2 302.3 201.2C302.3 201.2 332.5 211.7 335.8 247.2Z" fill="#FDC068"/>
<path d="M314.5 207.9C314.5 207.9 319.5 228.5 318.9 239.1C317.3 241.3 310.3 245.2 310.3 245.2C310.3 245.2 317.4 247.5 317.8 249.7C318.1 251.9 305.5 300.3 305 320.1" stroke="url(#paint26_linear)" stroke-miterlimit="10"/>
<path d="M267.2 312.9C270.5 311.3 274.2 309.9 278 309.3C279.5 309 284.5 308.1 284.9 309C285.4 310.2 279.3 311.6 280.9 311.6C282.6 311.6 293.5 310.2 293.6 311.3C293.7 312.4 283.3 314.6 283.3 314.6C283.3 314.6 295.3 313.6 295.3 315C295.4 316.4 284.2 317.1 284.2 317.1C284.2 317.1 294.5 316.9 294.6 318.3C294.6 319.6 284 319.5 284 319.5C284 319.5 292.2 320 292.2 320.9C292.2 321.8 279.5 324.1 264.9 320.3" fill="url(#paint27_linear)"/>
<path d="M251.8 252.2C249 271.9 221.3 310.9 221.3 310.9L268.8 312.1C268.8 312.1 271.7 316.4 269.9 321.4C266.9 326.5 218.5 341.5 197.2 341.5C174.2 341.5 186.5 268.3 219.2 227.3" fill="#FDC068"/>
<path d="M313.447 176.68C320.724 177.122 327.012 171.09 327.491 163.206C327.97 155.323 322.459 148.573 315.182 148.131C307.905 147.689 301.618 153.721 301.139 161.604C300.659 169.488 306.17 176.237 313.447 176.68Z" fill="#103FCD"/>
<path d="M312.765 176.682C319.656 177.101 325.623 171.183 326.092 163.465C326.561 155.747 321.355 149.151 314.464 148.732C307.572 148.313 301.606 154.231 301.137 161.949C300.668 169.667 305.874 176.263 312.765 176.682Z" fill="#42657A"/>
<path d="M311.683 176.58C318.354 176.985 324.133 171.191 324.592 163.639C325.051 156.086 320.016 149.635 313.345 149.229C306.675 148.824 300.895 154.618 300.436 162.171C299.977 169.723 305.012 176.175 311.683 176.58Z" fill="#FDC068"/>
<path opacity="0.45" d="M311.165 171.892C315.079 172.13 318.497 168.3 318.798 163.339C319.1 158.377 316.171 154.162 312.257 153.924C308.343 153.686 304.925 157.516 304.624 162.477C304.322 167.439 307.251 171.654 311.165 171.892Z" fill="#CC729B"/>
<path d="M289.8 116C288.3 114 287.7 111.6 286.5 109.4C283.7 104 277.7 100.9 271.7 100C269.7 99.7 267.5 99.6 265.6 100.4C262.3 101.7 260.1 105.2 256.7 106.4C255.4 106.9 254 107 252.7 107.1C248.1 107.5 243.5 108.2 239 109.7C237.3 110.3 235.6 110.9 234.1 112C230.4 114.7 228.7 120 230.3 124.3C231 126.3 232.3 128.2 232.5 130.3C232.7 132.5 231.7 134.8 232.5 136.9C232.9 138.1 233.8 139.1 234.7 140C236.3 141.7 238 143.3 240.1 144.4C242.1 145.5 244.4 145.9 246.6 146.4C249.5 147 252.5 147.6 255.5 147.5C258.5 147.5 261.6 146.8 264 145C266.1 143.5 267.6 141.3 269.1 139.1" fill="#42657A"/>
<path d="M274.8 114.1C269.9 116.3 264.9 118.6 261.4 122.6C259 125.4 257.4 128.8 255.4 131.9C253.4 135 250.8 138 247.2 139C244.9 139.6 242.5 139.4 240.2 139C239.3 138.9 238.3 138.7 237.7 138C237.1 137.3 237.1 136.4 237 135.6C236.7 132.6 235.9 129.5 233.8 127.4C233.1 126.7 232.1 126.2 231.1 125.9C231.8 127.3 232.5 128.7 232.7 130.3C232.9 132.5 231.9 134.8 232.7 136.9C233.1 138.1 234 139.1 234.9 140C236.5 141.7 238.2 143.3 240.3 144.4C242.3 145.5 244.6 145.9 246.8 146.4C249.7 147 252.7 147.6 255.7 147.5C258.7 147.5 261.8 146.8 264.2 145C266.3 143.5 267.8 141.3 269.3 139.1L289.9 116.1C285.3 109.8 277.7 112.8 274.8 114.1Z" fill="#42657A"/>
<path d="M281.9 181.3L275.4 196.9C274.7 198.7 274.7 200.6 275.4 202.4C277 206 280.4 211.8 286 211.8C295 211.8 296.1 201 296.1 201L297 186.6" fill="#F9C6B9"/>
<path d="M296.6 194.6L297.1 186.5L281.9 181.2L281.4 182.4C285 187.8 290.6 192.3 296.6 194.6Z" fill="#F49E87"/>
<path d="M314.2 134C316.1 135.7 317.6 137.8 318.8 140.2C322.1 147.1 320.1 154.7 318.7 161.8C317.3 169 316.3 179.1 311.4 185C298.7 200.3 276.3 184.9 272.2 169.6C269.4 159.1 267.6 144.8 275.3 135.8C284.3 125.1 303.9 124.5 314.2 134Z" fill="#F9C6B9"/>
<path d="M268.8 158.6C276 159.5 290.2 148.3 297 134.7C298.5 134.9 299.2 136.9 300.6 137.5C301.1 137.7 301.7 137.8 302.3 137.6C302.8 137.4 303.2 136.8 303.1 136.3C303.5 137 303.9 137.6 304.5 138C305.1 138.4 305.9 138.6 306.6 138.3C307.3 138 307.8 137.2 307.6 136.5C312 137.4 316.3 144.4 317.3 148.8C318.6 154.7 319.1 161.2 316.9 171.1C321.8 170.7 327.2 163 329.5 158.7C334.3 149.9 331 138.4 324.7 131.2C323.1 129.4 321.1 127.6 318.9 126.5C316.2 125.3 313.2 125.6 310.4 125C305.9 119.9 297 115.4 289.1 114.5C280.4 113.5 269.3 118.5 264 125.2C258.7 131.8 255.3 140.5 255.9 149.4C256.4 157.3 261.7 164 267.5 169.4" fill="#133F59"/>
<path d="M283.7 181.9C282.6 181.8 281.5 181.7 280.4 181.5C277.9 181 274.4 179.7 272 176.4C271.1 175.2 270.7 174.1 270.6 173C270.6 172.7 270.8 172.5 271.1 172.5C271.4 172.5 271.6 172.7 271.6 173C271.7 173.9 272.1 174.8 272.8 175.8C275.1 178.8 278.3 180 280.6 180.5C283.7 181.2 287 181 289.8 180.7C290.1 180.7 290.3 180.9 290.3 181.2C290.3 181.5 290.1 181.7 289.8 181.7C288.1 181.9 285.9 182.1 283.7 181.9Z" fill="#42657A"/>
<path d="M292.2 179.9C291.4 179.5 290.3 179.5 289.4 179.8C286.2 180.9 289.8 184.8 292.6 182.7C292.8 182.5 293 182.3 293.2 182.1C293.6 181.3 293.1 180.4 292.2 179.9Z" fill="#42657A"/>
<path d="M305.9 161.9C306.6 162.1 305.9 169 306.4 169.9C306.8 170.8 308.4 172.4 307.2 173.2C306.1 173.9 304.2 174.3 303.1 173.4C302.4 172.9 302.2 171.9 302.2 171.1C302.2 169.8 302.5 168.5 302.8 167.2C303 165.8 303.7 161.4 305.9 161.9Z" fill="url(#paint28_linear)"/>
<path d="M312.447 161.821C313.294 162.074 314.262 161.335 314.609 160.171C314.957 159.007 314.552 157.858 313.705 157.605C312.859 157.353 311.89 158.092 311.543 159.256C311.195 160.42 311.6 161.569 312.447 161.821Z" fill="#42657A"/>
<path d="M292.604 159.339C293.456 159.57 294.406 158.807 294.724 157.634C295.042 156.462 294.608 155.324 293.756 155.092C292.903 154.861 291.954 155.624 291.635 156.797C291.317 157.969 291.751 159.107 292.604 159.339Z" fill="#42657A"/>
<path d="M311.6 152.3C311.6 152.3 311.7 152.2 311.8 152C311.9 151.8 312.1 151.6 312.4 151.4C312.7 151.2 313 151 313.4 150.8C313.6 150.8 313.8 150.7 314 150.7C314.2 150.7 314.4 150.7 314.6 150.7C314.8 150.8 315 150.8 315.1 150.9C315.3 151 315.4 151.1 315.6 151.2C315.9 151.5 316.1 151.8 316.2 152.1C316.3 152.4 316.4 152.7 316.4 152.9C316.4 153.1 316.4 153.2 316.4 153.2C316.4 153.2 316.3 153.1 316.2 153C316.1 152.9 315.9 152.7 315.8 152.5C315.6 152.3 315.4 152.1 315.1 151.9C314.8 151.7 314.5 151.6 314.2 151.5C313.9 151.4 313.6 151.4 313.3 151.4C313.1 151.4 313 151.4 312.8 151.5C312.7 151.5 312.5 151.6 312.4 151.6C312.1 151.7 311.9 151.8 311.8 151.9C311.7 152.3 311.6 152.3 311.6 152.3Z" fill="#42657A"/>
<path d="M290.1 150C290.1 150 290.2 149.9 290.3 149.7C290.4 149.5 290.6 149.2 290.9 148.9C291.2 148.6 291.6 148.4 292 148.1C292.2 148 292.5 147.9 292.7 147.9C293 147.8 293.2 147.8 293.5 147.8C293.8 147.8 294 147.8 294.3 147.9C294.6 147.9 294.8 148 295 148.1C295.5 148.3 295.9 148.5 296.1 148.8C296.4 149.1 296.6 149.3 296.7 149.5C296.8 149.7 296.9 149.8 296.9 149.8C296.9 149.8 296.8 149.7 296.6 149.6C296.4 149.5 296.2 149.3 295.8 149.2C295.6 149.1 295.5 149.1 295.3 149C295.1 148.9 294.9 148.9 294.7 148.8C294.3 148.7 293.9 148.7 293.4 148.7C293 148.7 292.5 148.8 292.1 148.9C291.9 149 291.7 149 291.5 149.1C291.3 149.2 291.1 149.2 291 149.3C290.7 149.5 290.4 149.6 290.2 149.7C290.2 149.9 290.1 150 290.1 150Z" fill="#42657A"/>
<path d="M306.4 177.1C304.9 177.9 301.9 177.9 300 176.7C299.8 176.6 299.5 176.7 299.5 176.9C298.8 182.1 301.5 183.5 302.7 183.6C306.4 183.8 306.8 179.4 306.7 177.4C306.9 177.2 306.6 177 306.4 177.1Z" fill="white"/>
<path d="M294.5 171C296.1 169.4 296.6 165.9 294 164.3C292.9 163.6 290.7 163.3 289.5 163.7C287.7 164.3 286.7 166.1 286.8 167.7C286.8 169.9 287.7 171.5 289.7 172.2C291.2 172.7 293.2 172.2 294.5 171Z" fill="#EFA39C"/>
<path d="M315.8 172.3C317 170.8 317.4 167.6 315.5 166.1C314.7 165.5 313.1 165.2 312.2 165.6C310.8 166.2 310.1 167.8 310.1 169.3C310.1 171.3 310.7 172.8 312.2 173.4C313.4 173.9 314.9 173.5 315.8 172.3Z" fill="#EFA39C"/>
<path d="M270.1 148.9C272 142.2 275.7 136 280.8 131.3C285.9 126.6 292.5 123.5 299.4 122.6C304.6 121.9 303.6 121.2 308.3 122.9L311.6 125.2C303.2 124.3 295 127.3 288.2 132.3C281.4 137.3 276.7 144.9 275.1 153.2" fill="#42657A"/>
<path d="M269.1 148.2C271 141.5 274.7 135.3 279.8 130.6C284.9 125.9 291.5 122.8 298.4 121.9C303.6 121.2 304.9 121.5 308.2 122.5L310.6 124.6C302.2 123.7 294 126.7 287.2 131.7C280.4 136.7 275.7 144.3 274.1 152.6" fill="#3A3B95"/>
<path d="M268.745 176.68C276.022 177.122 282.31 171.09 282.789 163.206C283.268 155.323 277.757 148.573 270.48 148.131C263.203 147.689 256.916 153.721 256.437 161.605C255.958 169.488 261.468 176.237 268.745 176.68Z" fill="#3A3B95"/>
<path d="M268.063 176.682C274.954 177.101 280.92 171.184 281.39 163.466C281.859 155.747 276.653 149.151 269.761 148.732C262.87 148.314 256.904 154.231 256.435 161.949C255.965 169.667 261.172 176.263 268.063 176.682Z" fill="#42657A"/>
<path d="M266.981 176.58C273.652 176.986 279.431 171.192 279.89 163.639C280.35 156.086 275.314 149.635 268.643 149.23C261.973 148.824 256.193 154.618 255.734 162.171C255.275 169.724 260.311 176.175 266.981 176.58Z" fill="#FDC068"/>
<path opacity="0.45" d="M266.463 171.892C270.377 172.13 273.795 168.301 274.096 163.339C274.398 158.377 271.469 154.162 267.555 153.925C263.641 153.687 260.223 157.516 259.922 162.478C259.62 167.439 262.549 171.654 266.463 171.892Z" fill="#FDC068"/>
<path d="M464.2 294.2C464.1 296 462.4 297.5 461 298.7C456.8 302.2 454.5 308.5 447.8 306.2C445.2 305.3 445.7 302.4 444 300.7C442.1 298.9 439.1 298.5 437.6 296.2C434.7 291.9 442.7 292.1 439.7 288.1C436.1 283.3 440.9 278 445.1 275.9C449.5 273.7 458.7 270.1 462.6 274.9C464.3 277 463.8 279.5 462.7 281.7C461.7 283.6 459 285.9 459.8 288.2C460.4 290.2 462.8 290.7 463.8 292.5C464.1 293.1 464.2 293.7 464.2 294.2ZM464.9 264.6C464.4 263.4 463.7 262.2 462 261.9C457.9 261.2 455.1 267.2 458.8 269.5C462.9 272 466.3 267.8 464.9 264.6ZM467.8 285.3C467.6 284.7 467.2 284.2 466.4 284C464.5 283.7 462.3 287.2 464.1 288.3C466 289.5 468.4 286.9 467.8 285.3Z" fill="url(#paint29_linear)"/>
<path d="M464.3 333.8H455.9V329.8H464.3C467 329.8 469.2 327.6 469.2 324.9V317.6C469.2 314.9 467 312.7 464.3 312.7H455.9V308.7H464.3C469.2 308.7 473.2 312.7 473.2 317.6V324.9C473.2 329.8 469.2 333.8 464.3 333.8Z" fill="#FCB128"/>
<path d="M455.6 340.6H444.1C439.7 340.6 436.1 337 436.1 332.6V303H463.6V332.6C463.6 337 460 340.6 455.6 340.6Z" fill="#FDC068"/>
<path d="M347.8 340.6H255.5V338.9C255.5 336.6 257.3 334.8 259.6 334.8H347.8V340.6Z" fill="#B3A6EB"/>
<path d="M327 268.5L313.2 340.6H432.1L446 267.6C446.2 266.1 445.1 264.8 443.6 264.8H331.4C329.2 264.7 327.3 266.3 327 268.5Z" fill="#C4BDEF"/>
<path d="M393.7 303.6C393 308.3 388.7 312.1 384 312.1C379.3 312.1 376 308.3 376.7 303.6C377.4 298.9 381.7 295.1 386.4 295.1C391.1 295 394.3 298.8 393.7 303.6Z" fill="#FFE1FF"/>
<path d="M279.4 336.6H263.7V338.6H279.4V336.6Z" fill="#AA94C3"/>
<path d="M285.1 336.3H284.3V339.1H285.1V336.3Z" fill="#AA94C3"/>
<path d="M286.7 336.3H285.9V339.1H286.7V336.3Z" fill="#AA94C3"/>
<path d="M288.3 336.3H287.5V339.1H288.3V336.3Z" fill="#AA94C3"/>
<path d="M289.9 336.3H289.1V339.1H289.9V336.3Z" fill="#AA94C3"/>
<path d="M291.5 336.3H290.7V339.1H291.5V336.3Z" fill="#AA94C3"/>
<path d="M293.1 336.3H292.3V339.1H293.1V336.3Z" fill="#AA94C3"/>
<path d="M294.7 336.3H293.9V339.1H294.7V336.3Z" fill="#AA94C3"/>
<path d="M299.3 336.3H298.5V339.1H299.3V336.3Z" fill="#AA94C3"/>
<path d="M300.9 336.3H300.1V339.1H300.9V336.3Z" fill="#AA94C3"/>
<path d="M302.5 336.3H301.7V339.1H302.5V336.3Z" fill="#AA94C3"/>
<path d="M307.2 336.3H306.4V339.1H307.2V336.3Z" fill="#AA94C3"/>
<path d="M308.8 336.3H308V339.1H308.8V336.3Z" fill="#AA94C3"/>
<path d="M121 342.6V340.6H488.8V342.6H121ZM499.3 342.6H558.5V340.6H499.3V342.6Z" fill="#42429A"/>
</g>
<defs>
<linearGradient id="paint0_linear" x1="63.399" y1="48.666" x2="462.398" y2="447.665" gradientUnits="userSpaceOnUse">
<stop stop-color="#BABEFF" stop-opacity="0.2"/>
<stop offset="1" stop-color="#F6F3FF" stop-opacity="0.4"/>
</linearGradient>
<linearGradient id="paint1_linear" x1="193.263" y1="267.358" x2="193.263" y2="159.426" gradientUnits="userSpaceOnUse">
<stop stop-color="#AD9EEA"/>
<stop offset="0.2502" stop-color="#B3A6EB"/>
<stop offset="0.6445" stop-color="#C4BDEF"/>
<stop offset="1" stop-color="#D7D7F4"/>
</linearGradient>
<linearGradient id="paint2_linear" x1="180.004" y1="341.212" x2="79.0924" y2="154.71" gradientUnits="userSpaceOnUse">
<stop stop-color="#5B6DFF" stop-opacity="0.2"/>
<stop offset="1" stop-color="#5B6DFF" stop-opacity="0.1"/>
</linearGradient>
<linearGradient id="paint3_linear" x1="220.857" y1="327.252" x2="152.275" y2="200.501" gradientUnits="userSpaceOnUse">
<stop stop-color="#5B6DFF" stop-opacity="0.2"/>
<stop offset="1" stop-color="#5B6DFF" stop-opacity="0.1"/>
</linearGradient>
<linearGradient id="paint4_linear" x1="247.53" y1="328.251" x2="165.932" y2="177.443" gradientUnits="userSpaceOnUse">
<stop stop-color="#5B6DFF" stop-opacity="0.2"/>
<stop offset="1" stop-color="#5B6DFF" stop-opacity="0.1"/>
</linearGradient>
<linearGradient id="paint5_linear" x1="271.525" y1="308.634" x2="216.72" y2="207.346" gradientUnits="userSpaceOnUse">
<stop stop-color="#5B6DFF" stop-opacity="0.2"/>
<stop offset="1" stop-color="#5B6DFF" stop-opacity="0.1"/>
</linearGradient>
<linearGradient id="paint6_linear" x1="321.803" y1="306.678" x2="270.527" y2="211.912" gradientUnits="userSpaceOnUse">
<stop stop-color="#5B6DFF" stop-opacity="0.2"/>
<stop offset="1" stop-color="#5B6DFF" stop-opacity="0.1"/>
</linearGradient>
<linearGradient id="paint7_linear" x1="333.145" y1="304.214" x2="301.285" y2="245.332" gradientUnits="userSpaceOnUse">
<stop stop-color="#5B6DFF" stop-opacity="0.2"/>
<stop offset="1" stop-color="#5B6DFF" stop-opacity="0.1"/>
</linearGradient>
<linearGradient id="paint8_linear" x1="174.429" y1="290.497" x2="110.438" y2="156.014" gradientUnits="userSpaceOnUse">
<stop stop-color="#AD9EEA"/>
<stop offset="0.2502" stop-color="#B3A6EB"/>
<stop offset="0.6445" stop-color="#C4BDEF"/>
<stop offset="1" stop-color="#D7D7F4"/>
</linearGradient>
<linearGradient id="paint9_linear" x1="298.056" y1="283.253" x2="362.827" y2="218.481" gradientUnits="userSpaceOnUse">
<stop stop-color="#AD9EEA"/>
<stop offset="0.2502" stop-color="#B3A6EB"/>
<stop offset="0.6445" stop-color="#C4BDEF"/>
<stop offset="1" stop-color="#D7D7F4"/>
</linearGradient>
<linearGradient id="paint10_linear" x1="210.023" y1="254.654" x2="254.616" y2="177.417" gradientUnits="userSpaceOnUse">
<stop stop-color="#AD9EEA"/>
<stop offset="0.2502" stop-color="#B3A6EB"/>
<stop offset="0.6445" stop-color="#C4BDEF"/>
<stop offset="1" stop-color="#D7D7F4"/>
</linearGradient>
<linearGradient id="paint11_linear" x1="396.541" y1="207.043" x2="393.048" y2="198.434" gradientUnits="userSpaceOnUse">
<stop stop-color="#AD9EEA"/>
<stop offset="0.2502" stop-color="#B3A6EB"/>
<stop offset="0.6445" stop-color="#C4BDEF"/>
<stop offset="1" stop-color="#D7D7F4"/>
</linearGradient>
<linearGradient id="paint12_linear" x1="225.448" y1="155.666" x2="218.708" y2="162.061" gradientUnits="userSpaceOnUse">
<stop stop-color="#AD9EEA"/>
<stop offset="0.2502" stop-color="#B3A6EB"/>
<stop offset="0.6445" stop-color="#C4BDEF"/>
<stop offset="1" stop-color="#D7D7F4"/>
</linearGradient>
<linearGradient id="paint13_linear" x1="154.697" y1="209.458" x2="152.939" y2="200.335" gradientUnits="userSpaceOnUse">
<stop stop-color="#AD9EEA"/>
<stop offset="0.2502" stop-color="#B3A6EB"/>
<stop offset="0.6445" stop-color="#C4BDEF"/>
<stop offset="1" stop-color="#D7D7F4"/>
</linearGradient>
<linearGradient id="paint14_linear" x1="145.889" y1="98.4251" x2="154.329" y2="94.5419" gradientUnits="userSpaceOnUse">
<stop stop-color="#AD9EEA"/>
<stop offset="0.2502" stop-color="#B3A6EB"/>
<stop offset="0.6445" stop-color="#C4BDEF"/>
<stop offset="1" stop-color="#D7D7F4"/>
</linearGradient>
<linearGradient id="paint15_linear" x1="245.939" y1="77.4789" x2="230.01" y2="71.6416" gradientUnits="userSpaceOnUse">
<stop stop-color="#AD9EEA"/>
<stop offset="0.2502" stop-color="#B3A6EB"/>
<stop offset="0.6445" stop-color="#C4BDEF"/>
<stop offset="1" stop-color="#D7D7F4"/>
</linearGradient>
<linearGradient id="paint16_linear" x1="365.874" y1="143.038" x2="362.82" y2="146.206" gradientUnits="userSpaceOnUse">
<stop stop-color="#AD9EEA"/>
<stop offset="0.2502" stop-color="#B3A6EB"/>
<stop offset="0.6445" stop-color="#C4BDEF"/>
<stop offset="1" stop-color="#D7D7F4"/>
</linearGradient>
<linearGradient id="paint17_linear" x1="140.303" y1="168.249" x2="135.436" y2="180.717" gradientUnits="userSpaceOnUse">
<stop stop-color="#AD9EEA"/>
<stop offset="0.2502" stop-color="#B3A6EB"/>
<stop offset="0.6445" stop-color="#C4BDEF"/>
<stop offset="1" stop-color="#D7D7F4"/>
</linearGradient>
<linearGradient id="paint18_linear" x1="363.652" y1="193.297" x2="356.12" y2="197.198" gradientUnits="userSpaceOnUse">
<stop stop-color="#AD9EEA"/>
<stop offset="0.2502" stop-color="#B3A6EB"/>
<stop offset="0.6445" stop-color="#C4BDEF"/>
<stop offset="1" stop-color="#D7D7F4"/>
</linearGradient>
<linearGradient id="paint19_linear" x1="343.784" y1="132.754" x2="338.72" y2="141.256" gradientUnits="userSpaceOnUse">
<stop stop-color="#AD9EEA"/>
<stop offset="0.2502" stop-color="#B3A6EB"/>
<stop offset="0.6445" stop-color="#C4BDEF"/>
<stop offset="1" stop-color="#D7D7F4"/>
</linearGradient>
<linearGradient id="paint20_linear" x1="147.825" y1="154.544" x2="146.354" y2="150.921" gradientUnits="userSpaceOnUse">
<stop stop-color="#AD9EEA"/>
<stop offset="0.2502" stop-color="#B3A6EB"/>
<stop offset="0.6445" stop-color="#C4BDEF"/>
<stop offset="1" stop-color="#D7D7F4"/>
</linearGradient>
<linearGradient id="paint21_linear" x1="129.23" y1="60.9785" x2="127.76" y2="57.3548" gradientUnits="userSpaceOnUse">
<stop stop-color="#AD9EEA"/>
<stop offset="0.2502" stop-color="#B3A6EB"/>
<stop offset="0.6445" stop-color="#C4BDEF"/>
<stop offset="1" stop-color="#D7D7F4"/>
</linearGradient>
<linearGradient id="paint22_linear" x1="370.493" y1="254.06" x2="369.023" y2="250.437" gradientUnits="userSpaceOnUse">
<stop stop-color="#AD9EEA"/>
<stop offset="0.2502" stop-color="#B3A6EB"/>
<stop offset="0.6445" stop-color="#C4BDEF"/>
<stop offset="1" stop-color="#D7D7F4"/>
</linearGradient>
<linearGradient id="paint23_linear" x1="400.797" y1="244.519" x2="419.511" y2="212.106" gradientUnits="userSpaceOnUse">
<stop offset="0.3929" stop-color="#F9C6B9"/>
<stop offset="0.5748" stop-color="#F9C3B6"/>
<stop offset="0.7063" stop-color="#F9BAAD"/>
<stop offset="0.8221" stop-color="#F9AA9D"/>
<stop offset="0.9281" stop-color="#F99488"/>
<stop offset="1" stop-color="#F98074"/>
</linearGradient>
<linearGradient id="paint24_linear" x1="400.338" y1="236.204" x2="412.172" y2="217.288" gradientUnits="userSpaceOnUse">
<stop offset="0.3929" stop-color="#F9C6B9"/>
<stop offset="0.5748" stop-color="#F9C3B6"/>
<stop offset="0.7063" stop-color="#F9BAAD"/>
<stop offset="0.8221" stop-color="#F9AA9D"/>
<stop offset="0.9281" stop-color="#F99488"/>
<stop offset="1" stop-color="#F98074"/>
</linearGradient>
<linearGradient id="paint25_linear" x1="247.505" y1="260.931" x2="275.926" y2="260.931" gradientUnits="userSpaceOnUse">
<stop stop-color="#12178F"/>
<stop offset="0.1943" stop-color="#1A1995"/>
<stop offset="0.5015" stop-color="#3120A6"/>
<stop offset="0.8812" stop-color="#562AC0"/>
<stop offset="1" stop-color="#632ECA"/>
</linearGradient>
<linearGradient id="paint26_linear" x1="304.425" y1="263.904" x2="319.432" y2="263.904" gradientUnits="userSpaceOnUse">
<stop stop-color="#12178F"/>
<stop offset="0.1943" stop-color="#1A1995"/>
<stop offset="0.5015" stop-color="#3120A6"/>
<stop offset="0.8812" stop-color="#562AC0"/>
<stop offset="1" stop-color="#632ECA"/>
</linearGradient>
<linearGradient id="paint27_linear" x1="264.94" y1="315.382" x2="295.379" y2="315.382" gradientUnits="userSpaceOnUse">
<stop offset="0.1837" stop-color="#F9C6B9"/>
<stop offset="0.4282" stop-color="#F9C3B6"/>
<stop offset="0.6052" stop-color="#F9BAAD"/>
<stop offset="0.7608" stop-color="#F9AA9D"/>
<stop offset="0.9033" stop-color="#F99488"/>
<stop offset="1" stop-color="#F98074"/>
</linearGradient>
<linearGradient id="paint28_linear" x1="300.329" y1="160.578" x2="308.08" y2="173.827" gradientUnits="userSpaceOnUse">
<stop offset="0.1327" stop-color="#F9C6B9"/>
<stop offset="0.3383" stop-color="#F9C2B5"/>
<stop offset="0.547" stop-color="#F9B6A9"/>
<stop offset="0.7572" stop-color="#F9A195"/>
<stop offset="0.9672" stop-color="#F98579"/>
<stop offset="1" stop-color="#F98074"/>
</linearGradient>
<linearGradient id="paint29_linear" x1="440.566" y1="299.387" x2="470.46" y2="269.493" gradientUnits="userSpaceOnUse">
<stop stop-color="#BABEFF" stop-opacity="0.6"/>
<stop offset="1" stop-color="#F6F3FF" stop-opacity="0.4"/>
</linearGradient>
<clipPath id="clip0">
<rect width="561" height="385" fill="white"/>
</clipPath>
</defs>
</svg>
