<svg width="551" height="419" viewBox="0 0 551 419" fill="none" xmlns="http://www.w3.org/2000/svg">
<g clip-path="url(#clip0)">
<path d="M539.858 360.181C536.355 359.954 532.719 359.773 529.122 359.622C488.316 357.891 445.197 358.749 403.714 359.968C362.224 361.186 320.569 362.758 278.472 362.419C238.8 362.099 200.451 360.096 161.393 358.913C116.825 357.564 53.6493 356.72 25.3359 363.839C18.2359 365.626 9.41991 367.859 12.7102 370.067C15.9768 372.258 27.5478 373.912 40.323 374.752C53.0905 375.591 67.0937 375.746 80.8214 375.892C118.581 376.293 156.34 376.695 194.099 377.095C245.027 377.636 296.033 378.178 347.048 377.944C410.917 377.651 476.824 376.004 530.515 370.327C533.341 370.028 536.198 369.695 538.866 369.326C554.058 368.046 571.178 365.355 558.686 362.419C554.16 361.355 547.32 360.664 539.858 360.181Z" fill="#D0CFDF"/>
<path d="M410.936 33.8118H247.265V254.879H410.936V33.8118Z" fill="#E4EFFF"/>
<path d="M304.876 49.8315H262.922V90.0013H304.876V49.8315Z" fill="#A1CED1"/>
<path d="M360.023 52.4814H313.102V56.353H360.023V52.4814Z" fill="#99B1C5"/>
<path d="M385.322 64.1823H313.102V66.118H385.322V64.1823Z" fill="#B8CEE3"/>
<path d="M385.322 68.9486H313.102V70.8844H385.322V68.9486Z" fill="#B8CEE3"/>
<path d="M385.322 73.715H313.102V75.6507H385.322V73.715Z" fill="#B8CEE3"/>
<path d="M385.322 78.4813H313.102V80.4171H385.322V78.4813Z" fill="#B8CEE3"/>
<path d="M385.322 83.2477H313.102V85.1834H385.322V83.2477Z" fill="#B8CEE3"/>
<path d="M385.322 88.0139H313.102V89.9497H385.322V88.0139Z" fill="#B8CEE3"/>
<path d="M401.766 105.092H262.717V107.028H401.766V105.092Z" fill="#B8CEE3"/>
<path d="M401.766 109.858H262.717V111.794H401.766V109.858Z" fill="#B8CEE3"/>
<path d="M401.766 114.625H262.717V116.56H401.766V114.625Z" fill="#B8CEE3"/>
<path d="M401.766 119.391H262.717V121.327H401.766V119.391Z" fill="#B8CEE3"/>
<path d="M401.766 124.157H262.717V126.093H401.766V124.157Z" fill="#B8CEE3"/>
<path d="M401.766 128.924H262.717V130.86H401.766V128.924Z" fill="#B8CEE3"/>
<path d="M351.16 139.824H262.717V141.76H351.16V139.824Z" fill="#B8CEE3"/>
<path d="M380.221 144.591H262.717V146.526H380.221V144.591Z" fill="#B8CEE3"/>
<path d="M380.221 149.357H262.717V151.293H380.221V149.357Z" fill="#B8CEE3"/>
<path d="M380.221 154.123H262.717V156.059H380.221V154.123Z" fill="#B8CEE3"/>
<path d="M380.221 158.89H262.717V160.826H380.221V158.89Z" fill="#B8CEE3"/>
<path d="M380.221 163.656H262.717V165.592H380.221V163.656Z" fill="#B8CEE3"/>
<path d="M356.237 186.542H277.814V188.477H356.237V186.542Z" fill="#B8CEE3"/>
<path d="M382.008 191.308H277.814V193.244H382.008V191.308Z" fill="#B8CEE3"/>
<path d="M382.008 196.074H277.814V198.01H382.008V196.074Z" fill="#B8CEE3"/>
<path d="M382.008 200.841H277.814V202.776H382.008V200.841Z" fill="#B8CEE3"/>
<path d="M382.008 205.607H277.814V207.543H382.008V205.607Z" fill="#B8CEE3"/>
<path d="M382.008 210.373H277.814V212.309H382.008V210.373Z" fill="#B8CEE3"/>
<path d="M546.938 0H405.795V195.291H546.938V0Z" fill="#D5EBFF"/>
<path d="M457.063 15.7445H419.736V51.4835H457.063V15.7445Z" fill="#99B1C5"/>
<path d="M506.125 18.0933H464.375V21.5347H506.125V18.0933Z" fill="#99B1C5"/>
<path d="M528.629 28.512H464.375V30.2327H528.629V28.512Z" fill="#B8CEE3"/>
<path d="M528.629 32.7535H464.375V34.4742H528.629V32.7535Z" fill="#B8CEE3"/>
<path d="M528.629 36.9951H464.375V38.7158H528.629V36.9951Z" fill="#B8CEE3"/>
<path d="M528.629 41.2279H464.375V42.9486H528.629V41.2279Z" fill="#B8CEE3"/>
<path d="M528.629 45.4695H464.375V47.1902H528.629V45.4695Z" fill="#B8CEE3"/>
<path d="M528.629 49.7111H464.375V51.4318H528.629V49.7111Z" fill="#B8CEE3"/>
<path d="M543.262 64.905H464.375V66.6257H543.262V64.905Z" fill="#B8CEE3"/>
<path d="M543.255 69.1466H419.547V70.8673H543.255V69.1466Z" fill="#B8CEE3"/>
<path d="M543.255 73.3882H419.547V75.1089H543.255V73.3882Z" fill="#B8CEE3"/>
<path d="M543.255 77.6296H419.547V79.3503H543.255V77.6296Z" fill="#B8CEE3"/>
<path d="M543.255 81.8627H419.547V83.5833H543.255V81.8627Z" fill="#B8CEE3"/>
<path d="M543.255 86.1041H419.547V87.8248H543.255V86.1041Z" fill="#B8CEE3"/>
<path d="M498.238 102.967H419.547V106.228H498.238V102.967Z" fill="#99B1C5"/>
<path d="M524.088 108.748H419.547V110.469H524.088V108.748Z" fill="#B8CEE3"/>
<path d="M524.088 112.99H419.547V114.711H524.088V112.99Z" fill="#B8CEE3"/>
<path d="M524.088 117.232H419.547V118.952H524.088V117.232Z" fill="#B8CEE3"/>
<path d="M524.088 121.473H419.547V123.194H524.088V121.473Z" fill="#B8CEE3"/>
<path d="M524.088 125.715H419.547V127.435H524.088V125.715Z" fill="#B8CEE3"/>
<path d="M502.748 146.079H432.976V147.8H502.748V146.079Z" fill="#B8CEE3"/>
<path d="M525.678 150.312H432.976V152.033H525.678V150.312Z" fill="#B8CEE3"/>
<path d="M525.678 154.554H432.976V156.274H525.678V154.554Z" fill="#B8CEE3"/>
<path d="M525.678 158.795H432.976V160.516H525.678V158.795Z" fill="#B8CEE3"/>
<path d="M525.678 163.037H432.976V164.757H525.678V163.037Z" fill="#B8CEE3"/>
<path d="M525.678 167.278H432.976V168.999H525.678V167.278Z" fill="#B8CEE3"/>
<path d="M499.426 100.696H360.023V252.814H499.426V100.696Z" fill="#E8EFF7"/>
<path d="M411.605 120.355H377.309V153.186H411.605V120.355Z" fill="white"/>
<path d="M456.669 122.523H418.319V125.68H456.669V122.523Z" fill="#99B1C5"/>
<path d="M477.347 132.09H418.319V133.673H477.347V132.09Z" fill="#B8CEE3"/>
<path d="M477.347 135.987H418.319V137.57H477.347V135.987Z" fill="#B8CEE3"/>
<path d="M477.347 139.876H418.319V141.459H477.347V139.876Z" fill="#B8CEE3"/>
<path d="M477.347 143.773H418.319V145.356H477.347V143.773Z" fill="#B8CEE3"/>
<path d="M477.347 147.671H418.319V149.254H477.347V147.671Z" fill="#B8CEE3"/>
<path d="M477.347 151.568H418.319V153.151H477.347V151.568Z" fill="#B8CEE3"/>
<path d="M490.8 165.523H377.144V167.106H490.8V165.523Z" fill="#B8CEE3"/>
<path d="M490.8 169.42H377.144V171.003H490.8V169.42Z" fill="#B8CEE3"/>
<path d="M490.8 173.318H377.144V174.901H490.8V173.318Z" fill="#B8CEE3"/>
<path d="M490.8 177.207H377.144V178.79H490.8V177.207Z" fill="#B8CEE3"/>
<path d="M490.8 181.104H377.144V182.687H490.8V181.104Z" fill="#B8CEE3"/>
<path d="M490.8 185.001H377.144V186.585H490.8V185.001Z" fill="#B8CEE3"/>
<path d="M449.435 193.906H377.144V195.489H449.435V193.906Z" fill="#B8CEE3"/>
<path d="M473.183 197.803H377.144V199.386H473.183V197.803Z" fill="#B8CEE3"/>
<path d="M473.183 201.701H377.144V203.284H473.183V201.701Z" fill="#B8CEE3"/>
<path d="M473.183 205.598H377.144V207.181H473.183V205.598Z" fill="#B8CEE3"/>
<path d="M473.183 209.496H377.144V211.079H473.183V209.496Z" fill="#B8CEE3"/>
<path d="M473.183 213.385H377.144V214.968H473.183V213.385Z" fill="#B8CEE3"/>
<path d="M453.583 232.097H389.478V233.68H453.583V232.097Z" fill="#B8CEE3"/>
<path d="M474.639 235.995H389.478V237.578H474.639V235.995Z" fill="#B8CEE3"/>
<path d="M474.639 239.883H389.478V241.466H474.639V239.883Z" fill="#B8CEE3"/>
<path d="M474.639 243.781H389.478V245.364H474.639V243.781Z" fill="#B8CEE3"/>
<path d="M474.639 247.678H389.478V249.261H474.639V247.678Z" fill="#B8CEE3"/>
<path d="M474.639 251.576H389.478V253.159H474.639V251.576Z" fill="#B8CEE3"/>
<path d="M166.26 296.606H155.642V364.015H166.26V296.606Z" fill="#B1AFD7"/>
<path d="M327.325 97.7619C329.876 102.261 331.576 107.148 333.882 111.76C336.189 116.38 339.235 120.845 343.714 123.633C345.186 124.545 346.862 125.336 347.736 126.79C348.46 128.003 348.492 129.466 348.507 130.86C348.547 134.766 348.468 138.766 346.98 142.406C343.116 151.852 329.128 162.245 320.32 164.026C316.927 160.275 317.266 154.631 313.33 151.405C310.189 148.832 311.732 142.397 309.591 139.007C308.221 136.83 311.795 129.457 311.464 126.936C310.992 123.349 312.755 119.821 312.826 116.208C312.897 112.551 311.244 108.895 312.015 105.316C312.519 102.993 313.983 100.988 315.424 99.0524C316.478 97.6328 317.517 96.196 318.588 94.785C319.265 93.8989 320.028 92.8148 321.272 92.7116C323.996 92.5051 326.223 95.8261 327.325 97.7619Z" fill="#42657A"/>
<path d="M293.022 143.102C292.778 142.053 295.265 141.055 296.312 140.22C296.847 139.79 297.351 139.325 297.847 138.861C298.477 138.276 299.051 137.579 299.712 137.045C302.05 135.153 303.632 132.417 304.049 129.509C304.049 129.492 304.049 129.474 304.049 129.457C304.042 128.597 304.27 127.487 304.081 126.678C303.837 125.637 302.727 124.622 302.223 123.676C301.334 121.981 301.003 120.114 301.247 118.23C301.948 112.723 306.159 103.337 306.159 103.337C307.647 95.3098 317.187 95.241 321.76 99.8094C327.703 105.746 324.027 108.275 325.68 110.805C326.782 112.491 328.514 113.971 329.553 114.78C330.096 115.201 330.395 115.846 330.356 116.517C330.348 116.715 330.23 116.887 330.057 116.991C329.687 117.206 329.026 117.576 328.545 117.851C328.01 118.152 328.388 119.193 328.6 119.675C329.01 119.942 329.136 120.217 328.892 120.819C328.829 120.965 328.656 121.086 328.404 121.189C328.49 121.241 329.49 121.817 328.978 122.635C328.782 122.953 328.585 123.142 328.372 123.237C328.081 123.658 327.782 124.097 327.884 124.605C328.002 125.181 328.112 125.749 328.089 126.351C328.057 126.962 327.892 127.573 327.506 128.055C327.073 128.588 326.404 128.907 325.712 129.061C325.019 129.216 324.311 129.208 323.602 129.208C321.807 129.199 320.005 129.199 318.21 129.19C317.754 129.19 317.281 129.19 316.88 129.388C316.423 129.612 316.124 130.068 315.983 130.541C315.495 132.176 316.455 133.862 316.368 135.54C316.29 137.054 318.013 138.981 316.967 140.805C315.628 143.128 314.432 145.279 315.581 147.697C315.424 147.37 313.141 154.089 312.763 153.994C311.858 153.762 309.898 154.889 308.969 154.734C307.332 154.459 307.104 146.079 305.514 145.666C303.695 145.193 301.696 145.124 299.838 144.814C297.941 144.505 296.06 144.126 294.218 143.601C293.974 143.558 293.092 143.403 293.022 143.102Z" fill="#EEB192"/>
<path d="M308.371 349.32C308.371 349.32 306.434 354.577 303.852 354.577C303.852 354.577 298.862 355.411 298.043 352.718C297.484 350.895 297.091 350.086 296.752 347.806L308.371 349.32Z" fill="url(#paint0_linear)"/>
<path d="M327.459 352.968C327.459 352.968 325.523 358.225 322.941 358.225C322.941 358.225 317.95 359.059 317.132 356.366C316.573 354.542 316.179 353.734 315.841 351.454L327.459 352.968Z" fill="url(#paint1_linear)"/>
<path d="M336.582 165.471C342.745 181.216 347.405 186.533 347.405 186.533C356.504 188.778 372.2 161.325 373.538 158.984C375.301 155.896 378.97 153.358 378.97 153.358L384.401 152.231L388.36 149.417C389.832 148.996 391.902 147.774 392.91 147.447C397.239 146.062 396.192 144.814 396.192 144.814L396.027 144.393L389.092 145.761C382.047 146.182 384.393 141.829 384.393 141.829C384.393 141.829 388.061 138.035 390.265 135.084C395.216 128.451 393.051 128.898 393.051 128.898C390.407 131.427 386.447 135.643 386.447 135.643C381.606 139.859 376.758 145.761 376.758 145.761C376.758 145.761 370.043 154.235 362.227 161.359C352.978 169.79 349.9 173.585 349.9 173.585L347.405 167.399L339.77 148.282C338.447 143.223 336.243 137.458 330.08 137.88L336.582 165.471Z" fill="#EEB192"/>
<path d="M294.25 203.31C294.462 202.14 293.132 201.838 291.447 199.559C290.503 198.285 278.869 177.258 279.137 176.785C287.252 162.047 299.28 150.002 297.485 138.749C297.485 138.749 289.85 141.838 287.213 142.405C284.568 142.965 281.947 146.346 280.538 151.069C278.302 158.571 268.195 176.983 268.786 178.669C269.274 180.063 278.648 194.543 287.464 205.667C288.999 207.611 288.22 210.571 288.936 211.896C288.936 211.887 293.116 209.47 294.25 203.31Z" fill="#EEB192"/>
<path d="M338.644 207.534C338.904 208.833 339.054 210.175 339.219 211.475C340.03 217.979 339.92 224.56 339.384 231.091C339.109 234.455 338.715 237.81 338.274 241.157C338.054 242.834 337.818 244.503 337.582 246.173C337.393 247.472 337.542 248.702 337.377 249.984C336.629 255.757 335.645 261.521 334.78 267.277C334.488 269.239 334.189 271.192 333.898 273.153C333.898 273.153 332.135 286.919 332.135 289.173C332.135 291.418 330.08 353.252 330.08 353.252C330.08 353.252 318.391 354.517 313.637 351.282C312.677 350.628 312.385 350.275 312.385 350.275C312.385 350.275 314.81 327.665 314.81 325.979C314.81 324.292 315.101 311.095 315.392 299.85C315.684 288.605 316.565 280.174 316.565 280.174C316.565 280.174 316.274 273.145 315.975 269.772C315.684 266.399 314.448 222.754 314.448 222.754C314.448 222.754 311.575 245.028 312.157 258.243L312.661 268.172C312.85 271.871 312.645 275.579 312.055 279.244C311.787 280.879 311.575 282.798 311.575 284.665C311.575 289.44 312.165 342.274 312.165 342.274V349.019C312.165 349.019 296.895 350.421 293.085 348.46L295.43 295.066C295.43 295.066 295.722 284.105 295.722 281.851C295.722 279.606 296.013 277.076 295.722 273.42C295.43 269.763 290.731 244.185 290.141 239.685C289.55 235.186 287.205 224.784 287.795 218.323C288.386 211.862 289.244 206.252 290.708 204.007C292.172 201.761 292.778 199.739 292.778 199.739C292.778 199.739 311.74 204.962 335.417 198.079C335.992 199.825 336.558 201.572 337.133 203.318C337.503 204.454 338.156 205.495 338.44 206.631C338.518 206.923 338.589 207.224 338.644 207.534Z" fill="#3A3B95"/>
<path d="M268.784 178.119C269.398 173.903 280.772 149.942 281.103 148.91C283.346 141.941 290.863 140.47 291.989 140.151C293.697 139.669 300.671 136.865 302.143 135.789C304.552 140.556 307.055 145.46 310.983 149.185C312.234 146.845 313.478 144.505 314.729 142.165C315.265 141.167 315.8 140.16 316.115 139.084C316.43 138.009 316.288 137.02 316.32 135.772C319.09 137.002 321.94 137.673 324.994 137.751C326.001 137.777 326.954 137.648 327.898 137.51C329.292 137.312 330.661 137.106 332.133 137.364C336.352 138.121 338.43 141.072 339.761 144.642C339.776 144.677 350.033 172.191 350.033 172.191L350.93 171.425L354.291 168.543C353.701 175.288 359.353 180.347 359.353 180.347C350.836 189.905 345.625 186.817 344.452 185.69C343.389 184.674 342.76 182.868 342.098 181.603C340.768 179.065 339.477 176.501 338.202 173.929C337.1 171.709 336.006 169.489 334.92 167.27C334.731 166.882 334.542 166.487 334.345 166.099C334.203 165.807 334.03 165.11 333.684 165.575C333.385 165.97 334.196 167.958 334.274 168.5C334.424 169.618 334.432 170.754 334.282 171.872C333.889 174.866 332.779 177.74 331.992 180.665C331.441 183.565 331.338 186.55 331.629 189.484C332.897 194.353 336.463 198.621 337.62 203.585C325.301 203.697 313.006 204.549 300.718 205.392C296.979 205.65 293.571 205.254 289.816 205.237C291.17 202.165 292.524 199.085 293.87 196.014C294.004 195.541 294.138 195.119 294.256 194.792C294.846 193.106 295.13 191.316 295.13 191.316C295.13 191.316 297.027 182.42 296.444 178.764C296.263 177.654 293.288 175.211 292.225 171.236C290.918 166.358 294.177 163.751 292.288 160.714C291.462 159.389 279.418 176.217 279.977 177.594C280.497 178.876 284.716 186.55 283.472 185.363C283.33 185.225 278.576 186.972 275.498 190.189C275.498 190.181 268.383 180.855 268.784 178.119Z" fill="#FDC068"/>
<path d="M302.019 148.59C301.98 147.73 301.972 146.87 301.996 146.009C302.035 144.572 302.169 143.127 302.397 141.708C302.476 141.226 302.444 140.649 302.578 140.185C302.744 139.608 303.31 139.04 303.72 138.619C304.916 137.38 306.506 136.563 307.884 135.504C312.614 131.874 314.488 125.197 312.284 119.794C310.489 115.381 306.317 111.81 305.916 107.087C312.685 107.586 319.628 104.841 324.059 99.9288C325.649 98.1651 324.634 95.0334 322.902 93.3987C321.171 91.7641 318.738 91.0328 316.361 90.5596C316.298 90.551 316.227 90.5338 316.164 90.5252C304.373 88.2624 292.393 93.7773 286.969 104.05C286.395 105.143 285.883 106.261 285.434 107.397C284.844 108.92 284.364 110.511 284.364 112.137C284.364 114.787 285.537 118.495 287.142 120.663C287.748 121.489 288.52 122.083 289.024 122.995C289.748 124.294 290.259 125.739 290.684 127.15C292.345 132.648 291.338 138.361 289.236 143.729C288.292 146.138 286.56 148.848 285.529 151.232C284.498 153.615 284.561 156.299 284.781 158.863C285.261 164.472 290.37 167.372 295.667 168.327C300.319 169.17 305.066 169.514 309.804 169.351C312.032 169.273 314.551 168.929 315.849 167.191C309.513 165.453 304.223 160.739 302.814 154.501C302.374 152.548 302.106 150.569 302.019 148.59Z" fill="#133F59"/>
<path d="M320.32 101.384C318.549 103.354 316.368 104.972 313.967 106.176C317.872 105.023 321.445 102.855 324.114 99.8955C325.704 98.1317 324.688 95 322.957 93.3654C321.225 91.7307 318.793 90.9994 316.415 90.5262C316.353 90.5176 316.282 90.5004 316.219 90.4918C310.173 89.3303 304.073 90.2165 298.831 92.7459C303.121 91.4124 307.788 91.1026 312.425 91.9888C312.488 91.9974 312.558 92.0146 312.621 92.0232C314.999 92.4878 317.439 93.2277 319.163 94.8624C320.894 96.4885 321.91 99.6202 320.32 101.384Z" fill="#42657A"/>
<path d="M377.561 365.34C377.569 368.79 377.577 372.274 378.474 375.638C375.774 375.647 373.074 375.647 370.375 375.655C370.068 375.655 369.745 375.655 369.477 375.526C368.973 375.286 368.91 374.735 368.895 374.27C368.769 368.515 368.635 362.759 368.509 357.003C370.721 357.752 373.051 358.276 375.428 358.552C376.026 358.621 376.396 358.569 376.947 358.509C377.412 358.457 377.6 358.509 377.695 358.93C377.907 359.834 377.593 361.012 377.569 361.941C377.561 363.077 377.561 364.204 377.561 365.34Z" fill="#EEB192"/>
<path d="M364.849 365.125C364.644 364.643 364.007 364.488 363.597 364.832C361.873 366.26 357.237 369.427 348.012 371.577C348.012 371.577 345.768 372.051 344.147 374.546L378.474 374.296L378.427 368.472C378.419 367.835 377.632 367.491 377.128 367.912L375.814 369.014C375.184 369.538 374.381 369.84 373.547 369.848L368.627 369.926C367.564 369.943 366.596 369.323 366.203 368.377L364.849 365.125Z" fill="#212121"/>
<path d="M378.497 377.695L344.162 377.935L344.139 374.546L378.466 374.296L378.497 377.695Z" fill="#B3BECE"/>
<path d="M390.934 365.34C390.942 368.79 390.95 372.274 391.847 375.638C389.147 375.647 386.448 375.647 383.748 375.655C383.441 375.655 383.118 375.655 382.85 375.526C382.346 375.286 382.284 374.735 382.268 374.27C382.142 368.515 382.008 362.759 381.882 357.003C384.094 357.752 386.424 358.276 388.801 358.552C389.399 358.621 389.769 358.569 390.32 358.509C390.785 358.457 390.974 358.509 391.068 358.93C391.281 359.834 390.966 361.012 390.942 361.941C390.934 363.077 390.934 364.204 390.934 365.34Z" fill="#EEB192"/>
<path d="M378.215 365.125C378.01 364.643 377.372 364.488 376.963 364.832C375.239 366.26 370.603 369.427 361.378 371.577C361.378 371.577 359.134 372.051 357.513 374.546L391.84 374.296L391.793 368.472C391.785 367.835 390.998 367.491 390.494 367.912L389.179 369.014C388.55 369.538 387.747 369.84 386.913 369.848L381.993 369.926C380.93 369.943 379.962 369.323 379.568 368.377L378.215 365.125Z" fill="#303030"/>
<path d="M391.863 377.695L357.536 377.935L357.504 374.546L391.839 374.296L391.863 377.695Z" fill="#D0D9E8"/>
<path d="M434.109 188.796C433.755 188.856 433.401 188.907 433.039 188.916C431.48 188.968 429.914 188.262 428.954 187.075C428.135 186.06 427.852 184.812 427.97 183.556C428.009 183.1 428.048 182.756 427.852 182.334C427.584 181.767 427.049 181.483 426.694 180.992C426.057 180.097 426.632 178.798 426.096 177.843C425.364 176.527 423.034 176.647 422.397 175.279C422.066 174.574 422.349 173.757 422.554 173C422.877 171.821 422.987 170.599 423.019 169.377C423.042 168.147 422.869 167.244 422.546 166.056C421.948 163.828 421.617 161.445 422.302 159.199C422.861 157.358 424.065 155.741 425.498 154.399C428.379 151.689 431.772 149.804 435.888 149.761C439.462 149.718 443.098 150.88 445.995 152.867C450.797 156.154 453.638 161.901 453.26 167.536C453.064 170.47 452.064 173.301 451.67 176.217C451.34 178.661 451.442 181.147 451.828 183.582C452.033 184.847 452.379 186.094 452.67 187.342C452.953 188.537 453.048 189.759 453.308 190.955C453.843 193.441 452.78 195.592 452.552 198.001C452.339 200.281 450.686 202.742 449.561 204.721C449.128 205.478 448.679 206.218 448.262 206.983C446.231 210.692 444.964 214.752 442.894 218.443C442.768 218.667 442.571 218.925 442.311 218.873C443.067 213.711 442.272 208.472 441.398 203.336C441.233 202.346 441.257 201.34 441.115 200.359C441.005 199.619 440.784 198.888 440.674 198.139C440.391 196.16 440.107 194.181 439.816 192.203C439.635 190.964 439.36 189.57 438.273 188.873C437.526 188.4 436.565 188.383 435.676 188.512C435.156 188.581 434.637 188.701 434.109 188.796Z" fill="#EEB192"/>
<path d="M416.084 155.173C416.438 154.141 417.068 153.22 417.689 152.317C418.579 151.026 419.461 149.744 420.35 148.454C421.767 146.389 423.255 144.264 425.419 142.922C427.482 141.648 429.977 141.201 432.393 140.779C435.825 140.186 439.304 139.592 442.776 139.902C446.767 140.255 450.631 141.838 453.662 144.358C454.992 145.46 456.149 146.733 457.306 147.998C457.85 148.591 458.385 149.185 458.928 149.77C459.809 150.734 460.699 151.706 461.329 152.842C462.856 155.586 462.651 158.976 461.541 161.901C461.156 162.908 460.628 163.845 460.061 164.766C459.321 165.945 456.078 171.184 455.268 172.991C454.355 175.03 453.867 177.224 453.386 179.392C452.946 181.371 452.513 183.35 452.072 185.328C451.773 183.677 451.466 182.007 450.86 180.433C450.616 179.805 450.498 179.22 449.829 178.97C449.049 178.669 448.325 178.265 447.695 177.723C447.829 177.835 447.546 178.893 447.514 179.074C447.42 179.564 447.302 180.046 447.144 180.528C446.853 181.457 446.452 182.36 445.948 183.212C444.917 184.976 443.531 186.404 441.697 187.41C439.092 188.839 436.022 189.277 433.015 189.458C431.834 189.527 430.638 189.553 429.497 189.269C428.355 188.976 427.269 188.331 426.718 187.333C425.624 185.346 426.923 182.679 425.718 180.751C425.498 180.39 425.191 180.08 425.01 179.702C424.821 179.323 424.782 178.841 425.057 178.514C425.293 178.248 425.687 178.162 426.057 178.144C427.064 178.101 428.096 178.42 428.883 179.031C429.851 179.779 430.425 180.915 431.378 181.681C432.826 182.842 435.148 182.859 436.849 182.205C438.895 181.422 440.399 179.418 441.516 177.697C443.012 175.391 444.2 172.767 444.027 170.057C443.854 167.347 441.996 164.603 439.226 164.035C437.927 163.768 436.313 163.863 435.621 162.779C435.054 161.892 435.495 160.765 435.943 159.819C436.998 157.599 438.053 155.371 439.1 153.151C434.031 155.655 428.662 158.219 422.963 158.004C422.223 157.978 421.444 157.909 420.799 158.245C419.988 158.666 419.634 159.638 419.705 160.516C419.775 161.393 420.185 162.211 420.594 163.002C417.209 162.185 415.005 158.348 416.084 155.173Z" fill="#173F59"/>
<path d="M470.601 266.769L473.805 285.181L468.46 296.021L389.518 305.227L381.607 367.473L366.84 363.456L384.267 291.892C385.519 286.764 389.817 282.823 395.224 281.843L449.356 273.127L454.929 273.394L470.601 266.769Z" fill="#2E3288"/>
<path d="M473.49 270.761L475.269 280.982C476.19 286.299 475.308 291.763 472.734 296.555C471.144 299.523 467.956 301.398 464.469 301.407L402.411 301.605L394.083 365.598L374.215 364.471L386.353 295.978C387.494 289.543 392.69 284.458 399.38 283.219L444.861 274.839L449.191 270.512L473.49 270.761Z" fill="#42429A"/>
<path d="M490.319 307.696H407.417V314.244H490.319V307.696Z" fill="#A6A4D1"/>
<path d="M508.219 232.949C503.393 232.949 500.379 232.949 500.379 232.949C500.379 232.949 487.375 265.866 487.131 301.149H395.35V309.236H400.978C402.655 346.326 401.474 368.893 401.474 368.893H409.322L413.195 309.236H487.296C488.697 345.715 492.586 368.893 492.586 368.893H500.434C500.434 368.893 490.917 296.907 508.219 232.949Z" fill="#B1AFD7"/>
<path d="M446.27 198.715L423.593 221.652C419.571 225.722 413.667 227.546 407.929 226.496L397.956 224.681L395.216 230.858L401.726 231.357L417.571 234.928C422.357 236.003 427.292 233.835 429.552 229.654L446.27 198.715Z" fill="#42429A"/>
<path d="M473.333 270.71C473.27 270.761 473.207 270.796 473.136 270.83C472.05 271.329 469.318 270.779 468.138 270.761C465.445 270.727 462.746 270.693 460.054 270.658C456.433 270.615 452.812 270.564 449.191 270.52L446.499 260.652C444.594 253.683 443.508 246.534 443.248 239.333L442.839 227.916L441.863 228.819L435.408 234.756C428.214 241.38 417.855 243.789 408.291 241.079L390.769 236.115L384.252 235.625L386.771 226.436L413.345 230.746C416.336 231.228 419.366 230.161 421.31 227.933L438.856 207.827L439.068 207.586L439.58 201.512L440.092 195.154V195.119L452.765 187.411L454.614 190.972C458.062 193.863 460.849 197.451 463.651 200.909C466.76 204.738 468.94 209.186 470.719 213.703C474.324 222.866 476.363 232.588 476.812 242.361C477.04 247.3 476.867 252.255 476.277 257.168C475.985 259.62 475.592 262.072 475.096 264.498C474.828 265.875 474.521 269.781 473.333 270.71Z" fill="#6D66AE"/>
<path d="M457.33 208.799C452.638 218.977 447.947 229.155 443.248 239.333L442.838 227.916L441.862 228.819C442.161 227.795 443.193 227.468 443.814 226.66C445.798 224.096 447.782 221.532 449.765 218.968C450.537 217.669 451.3 216.361 452.111 215.079C452.851 213.918 453.63 212.782 454.504 211.707C454.937 211.173 455.385 210.657 455.873 210.158C456.236 209.78 457.117 209.246 457.33 208.799Z" fill="#6D66AE"/>
<path d="M453.78 192.271C451.434 195.635 448.404 198.492 445.397 201.322C443.705 202.914 442.012 204.506 440.32 206.097C440.265 206.149 440.21 206.201 440.162 206.244C440.139 206.269 440.115 206.304 440.092 206.33C439.69 206.837 439.399 207.431 438.856 207.801L439.068 207.56L439.58 201.486L440.092 195.128C440.233 195.309 440.367 195.489 440.501 195.678C440.69 195.937 440.784 196.091 440.784 196.091C441.619 197.33 442.288 198.664 442.768 200.058C445.893 196.84 449.647 194.181 453.78 192.271Z" fill="#42429A"/>
<path d="M202.721 303.283L205.72 300.34L202.083 301.347C197.644 288.037 172.353 211.561 169.181 188.744H119.323L119.071 185.75L116.096 188.77C116.096 188.77 125.667 303.764 128.17 310.432C128.17 310.432 167.197 313.331 202.626 303.369V303.377L202.642 303.36C202.674 303.351 202.713 303.343 202.744 303.334C202.736 303.343 202.729 303.317 202.721 303.283Z" fill="#2E3288"/>
<path d="M205.531 300.099C170.141 310.079 131.114 307.154 131.114 307.154C128.619 300.504 119.063 185.741 119.063 185.741H172.038C175.352 209.504 202.807 291.943 205.35 299.523C205.46 299.884 205.531 300.099 205.531 300.099Z" fill="#B1AFD7"/>
<path d="M205.531 300.099C170.141 310.079 131.114 307.154 131.114 307.154C128.619 300.504 119.063 185.741 119.063 185.741H124.872C126.659 200.789 128.454 215.716 130.249 230.695C133.059 254.148 135.9 277.799 143.599 300.228C164.151 299.041 184.766 298.809 205.342 299.531C205.46 299.901 205.531 300.099 205.531 300.099Z" fill="#A6A4D1"/>
<path d="M157.011 361.46L122.204 365.529C122.204 365.529 119.716 366.269 121.314 369.779L159.026 367.826L162.167 363.49L157.011 361.46Z" fill="#B1AFD7"/>
<path d="M164.348 361.46L199.155 365.529C199.155 365.529 201.643 366.269 200.045 369.779L162.482 367.826L159.192 363.49L164.348 361.46Z" fill="#B1AFD7"/>
<path d="M123.463 370.846C123.463 372.842 124.007 373.014 124.676 373.014C125.345 373.014 125.888 372.842 125.888 370.846C125.888 368.85 125.345 367.233 124.676 367.233C124.007 367.233 123.463 368.85 123.463 370.846Z" fill="#020B2A"/>
<path d="M120.48 369.745C120.48 371.552 121.818 371.56 123.463 371.56C125.109 371.56 126.447 371.552 126.447 369.745C126.447 367.938 125.109 366.476 123.463 366.476C121.818 366.484 120.48 367.947 120.48 369.745Z" fill="#020B2A"/>
<path d="M120.779 370.846C120.779 372.842 121.322 373.014 121.992 373.014C122.661 373.014 123.204 372.842 123.204 370.846C123.204 368.85 122.661 367.233 121.992 367.233C121.322 367.233 120.779 368.85 120.779 370.846Z" fill="#020B2A"/>
<path d="M198.439 370.88C198.439 372.876 198.982 373.049 199.651 373.049C200.32 373.049 200.863 372.876 200.863 370.88C200.863 368.884 200.32 367.267 199.651 367.267C198.982 367.267 198.439 368.884 198.439 370.88Z" fill="#020B2A"/>
<path d="M195.455 369.788C195.455 371.595 196.793 371.603 198.439 371.603C200.084 371.603 201.422 371.595 201.422 369.788C201.422 367.981 200.084 366.527 198.439 366.527C196.793 366.527 195.455 367.981 195.455 369.788Z" fill="#020B2A"/>
<path d="M195.762 370.88C195.762 372.876 196.305 373.049 196.974 373.049C197.643 373.049 198.187 372.876 198.187 370.88C198.187 368.884 197.643 367.267 196.974 367.267C196.297 367.267 195.762 368.884 195.762 370.88Z" fill="#020B2A"/>
<path d="M183.633 189.527L174.691 206.157L203.02 211.234L196.337 187.462L183.633 189.527Z" fill="#E09B7E"/>
<path d="M190.189 193.915C197.936 193.915 204.216 185.768 204.216 175.718C204.216 165.669 197.936 157.522 190.189 157.522C182.443 157.522 176.163 165.669 176.163 175.718C176.163 185.768 182.443 193.915 190.189 193.915Z" fill="#EEB192"/>
<path d="M191.449 148.221C194.267 148.394 197.069 148.987 199.675 150.063C203.894 151.809 207.672 155.027 209.136 159.294C210.813 164.181 209.27 169.515 207.735 174.445C206.948 176.957 206.019 178.721 204.815 181.104C204.492 181.741 202.863 183.53 202.863 183.53C202.863 183.53 203.091 181.044 203.327 180.459C204.571 177.31 203.886 174.058 203.217 170.745C199.187 171.907 195.786 171.021 191.874 169.507C187.962 167.992 184.443 165.661 180.956 163.355C181.326 166.358 180.579 169.481 178.886 172.002C177.926 173.43 176.619 174.824 176.627 176.536C176.635 177.491 176.58 178.514 176.643 179.469C176.714 180.519 177.713 184.021 177.713 184.021C177.713 184.021 175.966 182.386 175.171 181.526C173.856 180.097 172.621 178.213 171.849 176.458C171.259 175.116 170.676 173.765 170.204 172.38C169.283 169.661 168.819 166.805 168.811 163.94C168.811 161.557 168.858 158.313 170.078 156.171C170.968 154.614 173.219 153.444 174.691 152.523C177.021 151.061 179.571 149.951 182.232 149.211C185.215 148.385 188.348 148.032 191.449 148.221Z" fill="#173F59"/>
<path d="M176.438 181.526C177.138 181.526 177.705 180.389 177.705 178.988C177.705 177.586 177.138 176.45 176.438 176.45C175.738 176.45 175.171 177.586 175.171 178.988C175.171 180.389 175.738 181.526 176.438 181.526Z" fill="#EEB192"/>
<path d="M203.54 181.526C204.239 181.526 204.807 180.389 204.807 178.988C204.807 177.586 204.239 176.45 203.54 176.45C202.84 176.45 202.272 177.586 202.272 178.988C202.272 180.389 202.84 181.526 203.54 181.526Z" fill="#EEB192"/>
<path d="M219.936 233.19C220.652 234.704 221.36 236.218 222.077 237.732C225.886 236.347 230.066 235.9 234.096 236.459C230.515 230.729 224.556 226.427 221.966 220.224C221.518 219.14 221.006 217.858 219.825 217.566C219.361 217.454 218.873 217.523 218.401 217.592C216.787 217.832 215.173 218.082 213.56 218.323C212.969 218.409 212.206 218.349 212.261 219.08C212.3 219.613 213.056 220.336 213.347 220.783C214.992 223.278 216.409 225.903 217.724 228.57C218.479 230.101 219.211 231.641 219.936 233.19Z" fill="#EEB192"/>
<path d="M213.835 354.766C213.827 358.216 213.819 361.701 212.922 365.065C215.622 365.073 218.322 365.073 221.022 365.082C221.329 365.082 221.652 365.082 221.919 364.953C222.423 364.712 222.486 364.161 222.502 363.697C222.628 357.941 222.761 352.185 222.887 346.429C220.675 347.178 218.346 347.703 215.968 347.978C215.37 348.047 215 347.995 214.449 347.935C213.985 347.883 213.796 347.935 213.701 348.356C213.489 349.26 213.804 350.439 213.827 351.368C213.835 352.503 213.835 353.63 213.835 354.766Z" fill="#EEB192"/>
<path d="M226.555 354.551C226.76 354.069 227.398 353.914 227.807 354.259C229.531 355.687 234.167 358.853 243.392 361.004C243.392 361.004 245.636 361.477 247.257 363.972L212.93 363.722L212.977 357.898C212.985 357.261 213.772 356.917 214.276 357.339L215.59 358.44C216.22 358.965 217.023 359.266 217.857 359.274L222.777 359.352C223.84 359.369 224.808 358.75 225.201 357.803L226.555 354.551Z" fill="#303030"/>
<path d="M212.906 367.121L247.234 367.362L247.265 363.972L212.93 363.722L212.906 367.121Z" fill="#D0D9E8"/>
<path d="M159.396 357.777C159.388 361.227 159.38 364.712 158.483 368.076C161.183 368.084 163.883 368.084 166.583 368.093C166.89 368.093 167.213 368.093 167.48 367.964C167.984 367.723 168.047 367.172 168.063 366.708C168.189 360.952 168.322 355.196 168.448 349.441C166.237 350.189 163.907 350.714 161.529 350.989C160.931 351.058 160.561 351.006 160.01 350.946C159.546 350.895 159.357 350.946 159.262 351.368C159.05 352.271 159.365 353.45 159.388 354.379C159.396 355.506 159.396 356.642 159.396 357.777Z" fill="#EEB192"/>
<path d="M172.109 357.562C172.313 357.08 172.951 356.926 173.36 357.27C175.084 358.698 179.72 361.864 188.946 364.015C188.946 364.015 191.189 364.488 192.81 366.983L158.483 366.734L158.53 360.909C158.538 360.272 159.325 359.928 159.829 360.35L161.144 361.451C161.773 361.976 162.576 362.277 163.411 362.286L168.33 362.363C169.393 362.38 170.361 361.761 170.755 360.814L172.109 357.562Z" fill="#303030"/>
<path d="M158.467 370.123L192.795 370.373L192.818 366.983L158.491 366.734L158.467 370.123Z" fill="#D0D9E8"/>
<path d="M240.621 304.324C237.441 312.153 233.97 321.427 230.365 331.012C229.507 333.3 226.358 348.098 225.17 351.97C218.991 352.693 210.088 352.228 210.088 352.228C210.088 352.228 210.765 348.778 211.938 343.676C214.457 332.655 219.266 313.908 224.532 305.442C224.871 304.9 225.209 304.392 225.556 303.936C226.138 303.154 226.736 302.517 227.327 302.035C222.753 301.149 218.196 300.409 213.622 299.523C209.285 298.688 204.877 297.578 200.682 296.623H200.674C200.209 296.623 199.745 296.761 199.257 296.864C199.958 297.484 200.658 298.095 201.335 298.723C203.933 301.132 206.302 303.541 208.034 305.743C210.057 308.333 213.434 313.908 212.93 317.1C212.528 319.612 204.995 325.006 203.09 326.787C196.817 332.655 189.922 338.781 182.499 346.085C180.728 347.832 170.77 357.407 168.015 360.453C162.072 358.655 155.397 355.962 155.397 355.962C155.397 355.962 157.247 353.441 160.168 349.69C160.372 349.432 160.569 349.174 160.782 348.907C167.834 339.873 180.326 324.705 188.78 319.087C190.26 318.098 191.614 317.41 192.787 317.091C189.008 314.476 185.23 311.869 181.46 309.253C176.564 305.864 171.597 302.405 167.63 298.086C167.512 298.095 167.401 298.077 167.307 298.052C166.457 297.802 165.41 296.589 164.788 296.004C164.001 295.247 163.277 294.43 162.631 293.569C161.309 291.823 160.286 289.87 159.593 287.822C158.822 285.525 158.475 283.09 158.617 280.681C158.696 279.408 158.94 278.092 159.404 276.896C159.939 275.528 160.782 274.306 162.017 273.471C162.191 273.36 162.372 273.248 162.545 273.153C163.088 272.852 163.678 272.628 164.276 272.448C164.481 272.387 164.686 272.336 164.89 272.284C165.504 272.138 166.134 272.026 166.764 271.923C166.976 271.888 167.181 271.854 167.394 271.828C168.519 271.656 169.645 271.407 170.778 271.243C174.407 270.701 178.036 270.004 181.664 269.531H181.672C183.435 269.531 185.207 269.058 186.978 269.058H186.986C188.371 268.421 189.756 268.559 191.142 268.352C192.086 268.206 193.07 268.025 193.991 268.292C194.873 268.55 195.597 269.118 196.297 269.703C198.604 271.639 203.728 275.665 203.964 275.726C203.964 275.726 224.288 284.88 234.71 290.343C237.67 291.9 240.858 293.793 241.771 296.899C242.479 299.359 241.59 301.949 240.621 304.324Z" fill="#42429A"/>
<path d="M199.525 319.354C197.967 320.533 195.944 320.946 193.999 321.324C190.3 322.038 186.632 326.125 186.364 329.73C185.002 329.222 183.42 329.842 182.389 330.831C181.35 331.812 180.697 333.102 179.941 334.298C177.721 337.8 174.494 340.588 171.314 343.323C168.055 346.128 164.403 349.079 160.176 349.707C160.381 349.449 160.577 349.191 160.79 348.924C167.843 339.891 180.335 324.723 188.789 319.105C190.268 318.115 191.622 317.427 192.795 317.109C189.017 314.493 185.239 311.886 181.468 309.271C176.572 305.881 171.605 302.422 167.638 298.103C167.52 298.112 167.41 298.095 167.315 298.069C166.465 297.819 165.418 296.606 164.796 296.021C164.009 295.264 163.285 294.447 162.64 293.586C161.317 291.84 160.294 289.887 159.601 287.839C158.83 285.542 158.484 283.107 158.625 280.698C158.704 279.425 158.948 278.109 159.412 276.913C160.042 276.199 160.751 275.571 161.53 275.08C171.464 279.907 183.869 279.726 193.637 274.616C194.291 275.347 194.22 276.483 193.732 277.326C193.244 278.16 192.417 278.771 191.599 279.322C186.104 283.039 179.799 285.671 173.211 286.996C171.715 287.297 169.889 287.839 169.685 289.285C169.527 290.395 170.488 291.332 171.361 292.064C180.075 299.368 189.261 306.156 198.84 312.385C199.667 312.927 200.533 313.495 201.021 314.33C201.989 315.973 201.076 318.167 199.525 319.354Z" fill="#2E3288"/>
<path d="M226.674 303.506C226.311 303.678 225.934 303.825 225.556 303.936C226.138 303.154 226.737 302.517 227.327 302.035C222.754 301.149 218.196 300.409 213.623 299.523C209.286 298.688 204.878 297.578 200.682 296.623H200.674C200.21 296.623 199.745 296.761 199.257 296.864C199.958 297.484 200.658 298.095 201.335 298.723C200.233 298.12 199.163 297.458 198.124 296.761C195.133 294.765 192.393 292.391 190.056 289.706C188.615 288.054 187.285 286.179 187.017 284.036C186.86 282.746 187.183 281.361 187.97 280.303C188.466 279.631 189.52 278.444 190.008 279.408C190.197 279.769 189.969 280.268 190.213 280.655C190.607 281.266 191.646 281.584 192.268 281.92C193.976 282.841 195.684 283.761 197.4 284.673C199.36 285.731 201.32 286.79 203.28 287.839C208.963 290.893 214.811 294.008 221.258 294.877C222.872 295.101 224.525 295.169 226.052 295.711C227.579 296.245 229.011 297.363 229.358 298.886C229.791 300.736 228.437 302.646 226.674 303.506Z" fill="#143F58"/>
<path d="M164.025 217.531C158.964 223.872 158.72 232.476 158.68 240.46C158.617 254.208 158.562 267.965 158.499 281.714C170.873 279.614 184.947 274.547 196.55 269.927C196.487 265.126 194.416 262.063 194.346 257.254C194.259 250.896 194.165 244.503 195.101 238.206C196.038 231.908 198.045 225.653 201.831 220.431C203.429 218.228 206.137 215.002 208.577 216.31C211.096 217.66 211.781 220.723 212.662 223.485C216.756 221.48 219.227 220.095 222.447 218.633C219.526 208.154 210.592 199.404 200.107 195.3C200.021 198.698 198.242 202.019 195.416 204.067C192.582 206.115 188.757 206.846 185.325 205.994C182.995 205.418 180.807 204.084 179.626 202.08C178.445 200.075 178.469 197.373 179.988 195.592C173.518 194.999 166.843 196.676 161.514 200.238C156.185 203.809 148.046 216.344 148.046 216.344L156.185 223.098C156.193 223.089 161.6 218.788 164.025 217.531Z" fill="#6D66AE"/>
<path d="M189.143 246.792C178.981 246.689 168.819 246.577 158.649 246.474C153.21 246.413 147.77 246.362 142.331 246.302C138.089 239.763 140.899 232.648 143.055 227.228C143.906 225.094 147.66 219.57 149.219 217.316L156.059 222.986C154.485 226.935 151.533 234.532 149.99 239.677C152.863 240.141 155.76 240.434 158.672 240.597C167.85 241.105 177.154 240.348 186.333 239.806C187.521 239.737 187.891 243.325 188.883 243.953C189.875 244.581 190.182 246.241 189.143 246.792Z" fill="#EEB192"/>
<path d="M238.426 249.33H177.863L187.757 209.349H248.32L238.426 249.33Z" fill="#FDC068"/>
<path d="M178.807 247.041H152.422V249.33H178.807V247.041Z" fill="#B2BABD"/>
<path d="M238.748 247.041H178.807V249.536H238.748V247.041Z" fill="#D8E0E3"/>
<path d="M248.288 209.358L178.807 247.041H238.977L248.288 209.358Z" fill="#FCB128"/>
<path d="M216.677 230.893C216.26 233.035 214.292 234.48 212.277 234.128C210.262 233.766 208.971 231.744 209.388 229.593C209.805 227.451 211.773 226.006 213.788 226.359C215.803 226.72 217.094 228.75 216.677 230.893Z" fill="#F3F3F3"/>
<path d="M356.647 249.33H417.21L407.307 209.349H346.745L356.647 249.33Z" fill="#FDC068"/>
<path d="M442.65 247.041H416.265V249.33H442.65V247.041Z" fill="#B2BABD"/>
<path d="M416.258 247.041H356.317V249.536H416.258V247.041Z" fill="#D8E0E3"/>
<path d="M346.783 209.358L416.264 247.041H356.095L346.783 209.358Z" fill="#FCB128"/>
<path d="M378.395 230.893C378.813 233.035 380.781 234.48 382.796 234.128C384.811 233.766 386.102 231.744 385.684 229.593C385.267 227.451 383.299 226.006 381.284 226.359C379.269 226.72 377.978 228.75 378.395 230.893Z" fill="#F3F3F3"/>
<path d="M85.1926 254.871H497.773C498.687 254.871 499.426 253.649 499.426 252.143C499.426 250.638 498.687 249.416 497.773 249.416H85.1926C84.2795 249.416 83.5396 250.638 83.5396 252.143C83.5396 253.649 84.2795 254.871 85.1926 254.871Z" fill="#5F4663"/>
<path d="M107.831 254.871H102.321V367.344H107.831V254.871Z" fill="#5F4663"/>
<path d="M113.963 366.63H96.1968V371.156H113.963V366.63Z" fill="#5F4663"/>
<path d="M85.1926 253.494H497.773C498.687 253.494 499.426 253.193 499.426 252.823C499.426 252.453 498.687 252.152 497.773 252.152H85.1926C84.2795 252.152 83.5396 252.453 83.5396 252.823C83.5396 253.193 84.2795 253.494 85.1926 253.494Z" fill="#9F90A1"/>
<path d="M107.122 254.871H104.753V367.344H107.122V254.871Z" fill="#9F90A1"/>
<path d="M481.008 254.871H475.498V367.344H481.008V254.871Z" fill="#5F4663"/>
<path d="M487.132 366.63H469.366V371.156H487.132V366.63Z" fill="#5F4663"/>
<path d="M480.291 254.871H477.922V367.344H480.291V254.871Z" fill="#9F90A1"/>
</g>
<defs>
<linearGradient id="paint0_linear" x1="305.181" y1="352.068" x2="294.955" y2="350.509" gradientUnits="userSpaceOnUse">
<stop stop-color="#3D2D2D"/>
<stop offset="1" stop-color="#3D2D2D"/>
</linearGradient>
<linearGradient id="paint1_linear" x1="324.266" y1="355.722" x2="314.04" y2="354.163" gradientUnits="userSpaceOnUse">
<stop stop-color="#3D2D2D"/>
<stop offset="1" stop-color="#3D2D2D"/>
</linearGradient>
<clipPath id="clip0">
<rect width="551" height="419" fill="white"/>
</clipPath>
</defs>
</svg>
