<svg id="smartphone" width="300" height="302" viewBox="0 0 400 402" fill="none" xmlns="http://www.w3.org/2000/svg">
<circle cx="192.5" cy="200.5" r="171.5" fill="#DFDFDF"/>
<circle cx="192.5" cy="200.5" r="159.5" fill="#DADADA"/>
<circle cx="192.5" cy="200.5" r="147.5" fill="#D4D4D4"/>
<circle cx="192.5" cy="200.5" r="133.5" fill="#CFCFCF"/>
<circle cx="192" cy="201" r="118" fill="#C4C4C4"/>
<path fill-rule="evenodd" clip-rule="evenodd" d="M123.064 212.857L129.99 334.362L191.742 332.87H254.992L260.424 189.274L253.126 67.5758L196.791 68.7983L129.99 67.5106L123.064 212.857ZM243.534 62.3178C246.023 62.7825 249.563 64.5358 250.671 65.8525C251.156 66.4289 252.261 67.2043 253.126 67.5758C255.82 68.7305 258.898 73.6038 259.911 78.3178C260.257 79.932 260.371 85.7946 260.38 102.55C260.391 121.38 260.471 124.839 260.921 125.916C261.363 126.973 261.449 129.649 261.449 142.232C261.449 154.816 261.363 157.492 260.921 158.548C260.457 159.66 260.393 169.582 260.393 240.564C260.393 319.829 260.38 321.366 259.697 324.035C257.737 331.703 251.668 337.617 244.094 339.242C240.878 339.931 142.606 339.931 139.391 339.242C131.974 337.65 126.006 331.93 123.928 324.421C123.058 321.28 122.825 295.566 123.029 225.407C123.188 170.509 123.159 166.438 122.601 165.2C122.068 164.017 122.023 162.812 122.193 154.196C122.42 142.621 122.42 142.197 122.193 130.002C122.04 121.834 122.093 120.258 122.552 119.37C123.297 117.93 123.297 111.025 122.552 110.041C121.828 109.083 121.811 100.814 122.531 99.787C122.921 99.2299 123.058 96.872 123.173 88.707C123.37 74.7515 123.697 73.735 129.99 67.5106C132.936 64.5974 136.486 62.7729 140.342 62.1928C142.512 61.8654 241.758 61.9869 243.534 62.3178ZM139.902 68.7983C138.982 69.0456 137.953 69.4901 137.614 69.7858C137.275 70.0815 136.39 70.6061 135.648 70.9502C134.108 71.6658 131.866 74.4347 130.933 76.7723C130.214 78.5696 129.757 318.531 130.463 322.356C131.231 326.509 134.027 330.157 137.795 331.924L139.814 332.87H191.742H243.67L245.61 331.959C249.78 329.999 252.459 326.148 253.015 321.316C253.491 317.182 253.459 82.1984 252.983 79.2631C252.363 75.4459 250.272 72.2475 247.309 70.5876C246.469 70.1167 245.307 69.4496 244.726 69.1046C243.807 68.5589 242.568 68.4629 235.199 68.367C225.251 68.2376 225.428 68.1813 224.8 71.6385C224.289 74.4532 223.688 75.512 221.947 76.6641L220.487 77.6304L192.54 77.7264C172.747 77.795 164.167 77.7079 163.131 77.4289C161.129 76.8902 159.125 74.8387 158.838 73.0361C158.457 70.6316 157.84 68.9743 157.2 68.6311C156.251 68.1241 141.895 68.2623 139.902 68.7983ZM193.653 189.609C194.598 190.554 193.328 192.753 191.2 193.858C190.134 194.411 189.494 195.307 187.361 199.23C183.644 206.063 182.239 207.479 180.843 205.795C180.261 205.094 180.418 204.615 183.239 198.475C184.502 195.725 184.597 195.339 184.121 194.863C183.456 194.198 183.136 194.393 182.038 196.133C181.556 196.895 180.375 198.085 179.411 198.777C177.498 200.152 177.413 200.366 178.19 201.858C178.89 203.2 178.878 205.21 178.169 205.483C177.046 205.913 175.393 205.093 174.667 203.744C173.775 202.086 173.271 202.094 172.412 203.778C171.455 205.653 170.844 206.078 169.478 205.813C168.847 205.69 168.172 205.6 167.978 205.611C164.599 205.811 164.819 205.888 164.701 204.458C164.641 203.732 164.45 203.138 164.277 203.138C163.566 203.138 161.913 204.06 160.672 205.147C159.205 206.435 158.944 206.501 157.834 205.868C157.411 205.628 156.352 205.43 155.481 205.428L153.896 205.426L153.87 203.842L153.843 202.258H151.944C150.398 202.258 149.978 202.389 149.682 202.965C148.16 205.931 145.715 206.815 144.907 204.692C144.57 203.806 143.725 203.561 143.312 204.231C142.326 205.825 137.238 206.484 135.637 205.225C133.635 203.65 134.796 202.082 137.963 202.082C141.507 202.082 141.984 201.118 139.762 198.446C136.953 195.07 141.464 189.477 147.041 189.424C151.415 189.381 150.72 193.351 146.245 193.966C143.968 194.278 143.656 195.16 145.028 197.405C146.444 199.72 146.512 199.691 148.524 195.898C151.513 190.262 155.062 188.18 155.481 191.817L155.657 193.346L157.698 191.555C161.858 187.908 163.454 188.895 161.619 193.98C160.128 198.114 160.552 198.404 163.293 195.124C169.397 187.819 174.08 187.671 171.488 194.865C170.388 197.919 170.87 197.71 173.701 193.909C177.04 189.426 181.208 187.936 183.297 190.478L184.183 191.554L185.586 190.952C189.097 189.445 192.863 188.818 193.653 189.609ZM202.112 189.274C202.8 189.538 203.712 191.209 203.712 192.207C203.712 193.284 204.127 193.096 205.579 191.359C208.562 187.791 211.134 189.212 208.718 193.094C207.609 194.876 207.578 195.745 208.624 195.745C209.376 195.745 210.138 194.886 210.743 193.354C212.47 188.993 216.413 187.501 215.772 191.451L215.565 192.728L216.981 191.606C218.771 190.189 219.526 189.911 222.434 189.605C225.45 189.287 226.08 189.981 225.975 193.509C225.896 196.202 226.063 196.242 227.652 193.913C230.136 190.271 231.736 189.972 232.404 193.026C232.906 195.32 233.084 195.333 234.511 193.182C237.26 189.043 241.042 189.484 239.122 193.72C238.947 194.104 238.989 194.337 239.232 194.337C239.446 194.337 239.622 194.099 239.622 193.808C239.622 193.518 239.764 193.28 239.939 193.28C240.114 193.28 240.419 192.816 240.617 192.247C241.487 189.749 248.805 188.308 249.065 190.583C249.212 191.868 248.447 192.698 246.569 193.287C243.965 194.105 242.509 196.109 244.198 196.551C245.839 196.98 244.635 198.894 242.376 199.449C240.129 200.001 239.647 202.13 241.701 202.434C245.63 203.014 242.798 206.305 238.368 206.306C234.716 206.306 234.615 206.053 235.931 200.145C236.107 199.355 235.806 199.665 234.734 201.378C231.768 206.115 228.708 206.739 228.708 202.608C228.708 201.341 228.099 201.229 227.501 202.385C225.359 206.527 222.045 206.681 223.419 202.575C224.393 199.666 224.326 199.58 222.635 201.561C219.328 205.435 217.953 206.306 215.138 206.306C213.144 206.306 211.643 205.014 211.258 202.965L211.008 201.629L210.361 202.472C210.004 202.935 209.709 203.495 209.705 203.718C209.689 204.542 207.196 206.35 206.229 206.239C204.944 206.09 204.867 205.023 205.98 202.826C208.055 198.731 206.122 198.841 203.602 202.962C201.632 206.183 201.453 206.347 200.018 206.222C198.636 206.101 198.518 205.349 199.502 202.924C200.443 200.607 200.353 200.471 198.325 201.16C197.426 201.465 196.219 201.612 195.532 201.501C194.36 201.311 193.15 202.635 193.15 204.111C193.15 205.017 191.256 206.306 189.926 206.306C187.554 206.306 187.459 205.291 189.457 201.33C194.07 192.19 198.561 187.912 202.112 189.274ZM178.038 193.856C177.192 194.932 177.115 195.393 177.781 195.393C178.419 195.393 179.42 194.246 179.42 193.517C179.42 192.661 178.872 192.795 178.038 193.856ZM197.271 196.269C196.592 197.696 197.076 197.937 197.947 196.606C198.323 196.033 198.414 195.586 198.198 195.371C197.983 195.156 197.648 195.481 197.271 196.269ZM218.226 197.241C216.235 199.844 215.332 201.43 215.331 202.325C215.327 204.621 217.603 202.793 219.406 199.052C221.362 194.99 220.712 193.992 218.226 197.241ZM165.384 198.682C165.133 198.984 164.988 199.516 165.06 199.865C165.177 200.42 165.247 200.398 165.64 199.686C166.2 198.671 166.01 197.928 165.384 198.682ZM196.114 212.857C196.928 213.17 196.795 214.409 195.791 215.888C194.339 218.025 194.606 218.376 196.791 217.205C200.757 215.08 200.36 219.409 196.381 221.682C193.767 223.174 193.831 223.062 194.607 224.817C196.359 228.778 194.745 230.778 191.907 228.161C189.944 226.352 189.559 226.365 188.237 228.286C186.716 230.499 184.701 230.801 184.701 228.816C184.701 228.464 184.543 228.077 184.349 227.958C184.155 227.838 183.997 227.879 183.997 228.048C183.997 228.497 181.738 229.501 180.156 229.754C177.13 230.237 175.196 228.651 175.196 225.687C175.196 224.903 175.037 224.261 174.844 224.261C174.65 224.261 174.491 224.388 174.491 224.543C174.491 224.698 173.705 225.708 172.743 226.787C169.001 230.985 164.707 231.375 162.826 227.688C162.13 226.323 162.036 226.258 161.678 226.89C159.813 230.192 156.857 230.39 157.4 227.178L157.625 225.845L155.823 225.89C154.142 225.933 153.957 226.029 153.1 227.299C151.498 229.674 149.131 230.463 148.603 228.798C148.198 227.523 151.773 219.858 154.43 216.307C156.714 213.254 159.296 212.858 159.074 215.595C158.938 217.269 159.278 217.205 161.676 215.108C164.722 212.443 166.726 212.8 165.947 215.869C165.441 217.865 165.848 217.913 167.722 216.075C169.699 214.138 170.733 213.692 173.803 213.455C176.672 213.234 177.062 213.606 177.308 216.805L177.484 219.099L179.736 216.933C183.313 213.494 187.084 212.436 189.257 214.264C190.335 215.171 190.356 215.174 191.253 214.528C193.617 212.826 194.891 212.388 196.114 212.857ZM223.865 213.706C224.111 214.096 223.549 215.562 221.771 219.163C220.435 221.87 218.898 225.136 218.357 226.421C217.269 228.999 216.326 229.775 214.739 229.398C214.193 229.268 213.587 229.174 213.393 229.189C213.2 229.204 212.249 229.303 211.281 229.407C208.687 229.689 207.761 228.628 207.761 225.376C207.761 223.47 207.661 223.052 207.233 223.151C203.351 224.052 198.431 223.861 198.431 222.809C198.431 220.886 204.304 219.479 208.437 220.411C208.969 220.532 209.531 219.896 211.09 217.402C213.241 213.964 214.517 212.878 215.472 213.671C216.309 214.367 216.197 214.834 214.249 218.743C212.798 221.655 212.569 222.347 213.026 222.44C213.695 222.578 214.277 221.93 217.242 217.744C220.519 213.12 222.675 211.805 223.865 213.706ZM233.997 213.964C236.678 217.359 231.746 225.317 226.961 225.317H225.179L224.343 227.205C223.141 229.924 221.41 230.887 219.532 229.882C218.199 229.169 219.427 225.911 223.263 219.98C227.263 213.798 231.841 211.232 233.997 213.964ZM182.813 219.338C179.339 222.387 178.801 225.554 181.783 225.397C183.509 225.305 183.649 225.361 184.169 226.365C184.917 227.812 184.902 227.824 186.478 224.445C188.149 220.86 188.199 220.388 186.901 220.392C186.242 220.394 185.645 220.044 185.027 219.292L184.12 218.189L182.813 219.338ZM170.191 220.184C167.077 223.941 165.811 227.078 167.409 227.078C168.644 227.078 171.675 222.084 171.675 220.048C171.675 218.708 171.393 218.734 170.191 220.184ZM228.444 219.666C227.761 220.772 227.839 221.66 228.556 220.942C228.86 220.639 229.058 220.066 228.997 219.671L228.884 218.953L228.444 219.666Z" fill="#E8E7E5"/>
<path fill-rule="evenodd" clip-rule="evenodd" d="M140.342 62.1928C136.486 62.7729 132.936 64.5974 129.99 67.5106C123.697 73.735 123.37 74.7515 123.173 88.707C123.058 96.872 122.921 99.2299 122.531 99.787C121.811 100.814 121.828 109.083 122.552 110.041C123.297 111.025 123.297 117.93 122.552 119.37C122.093 120.258 122.04 121.834 122.193 130.002C122.42 142.197 122.42 142.621 122.193 154.196C122.023 162.812 122.068 164.017 122.601 165.2C123.159 166.438 123.188 170.509 123.029 225.407C122.825 295.566 123.058 321.28 123.928 324.421C126.006 331.93 131.974 337.65 139.391 339.242C142.606 339.931 240.878 339.931 244.094 339.242C251.668 337.617 257.737 331.703 259.697 324.035C260.38 321.366 260.393 319.829 260.393 240.564C260.393 169.582 260.457 159.66 260.921 158.548C261.363 157.492 261.449 154.816 261.449 142.232C261.449 129.649 261.363 126.973 260.921 125.916C260.471 124.839 260.391 121.38 260.38 102.55C260.371 85.7946 260.257 79.932 259.911 78.3178C258.898 73.6038 255.82 68.7305 253.126 67.5758C252.261 67.2043 251.156 66.4289 250.671 65.8525C249.563 64.5358 246.023 62.7825 243.534 62.3178C241.758 61.9869 142.512 61.8654 140.342 62.1928ZM157.2 68.6311C157.84 68.9743 158.457 70.6316 158.838 73.0361C159.125 74.8387 161.129 76.8902 163.131 77.4289C164.167 77.7079 172.747 77.795 192.54 77.7264L220.487 77.6304L221.947 76.6641C223.688 75.512 224.289 74.4532 224.8 71.6385C225.428 68.1813 225.251 68.2376 235.199 68.367C242.568 68.4629 243.807 68.5589 244.726 69.1046C245.307 69.4496 246.469 70.1167 247.309 70.5876C250.272 72.2475 252.363 75.4459 252.983 79.2631C253.459 82.1984 253.491 317.182 253.015 321.316C252.459 326.148 249.78 329.999 245.61 331.959L243.67 332.87H191.742H139.814L137.795 331.924C134.027 330.157 131.231 326.509 130.463 322.356C129.757 318.531 130.214 78.5696 130.933 76.7723C131.866 74.4347 134.108 71.6658 135.648 70.9502C136.39 70.6061 137.275 70.0815 137.614 69.7858C139.11 68.4797 155.15 67.5344 157.2 68.6311ZM189.454 189.728C188.098 190.07 186.357 190.62 185.586 190.952L184.183 191.554L183.297 190.478C181.208 187.936 177.04 189.426 173.701 193.909C170.87 197.71 170.388 197.919 171.488 194.865C174.08 187.671 169.397 187.819 163.293 195.124C160.552 198.404 160.128 198.114 161.619 193.98C163.454 188.895 161.858 187.908 157.698 191.555L155.657 193.346L155.481 191.817C155.062 188.18 151.513 190.262 148.524 195.898C146.512 199.691 146.444 199.72 145.028 197.405C143.656 195.16 143.968 194.278 146.245 193.966C150.72 193.351 151.415 189.381 147.041 189.424C141.464 189.477 136.953 195.07 139.762 198.446C141.984 201.118 141.507 202.082 137.963 202.082C134.796 202.082 133.635 203.65 135.637 205.225C137.238 206.484 142.326 205.825 143.312 204.231C143.725 203.561 144.57 203.806 144.907 204.692C145.715 206.815 148.16 205.931 149.682 202.965C149.978 202.389 150.398 202.258 151.944 202.258H153.843L153.87 203.842L153.896 205.426L155.481 205.428C156.352 205.43 157.411 205.628 157.834 205.868C158.944 206.501 159.205 206.435 160.672 205.147C161.913 204.06 163.566 203.138 164.277 203.138C164.45 203.138 164.641 203.732 164.701 204.458C164.819 205.888 164.599 205.811 167.978 205.611C168.172 205.6 168.847 205.69 169.478 205.813C170.844 206.078 171.455 205.653 172.412 203.778C173.271 202.094 173.775 202.086 174.667 203.744C175.393 205.093 177.046 205.913 178.169 205.483C178.878 205.21 178.89 203.2 178.19 201.858C177.413 200.366 177.498 200.152 179.411 198.777C180.375 198.085 181.556 196.895 182.038 196.133C183.136 194.393 183.456 194.198 184.121 194.863C184.597 195.339 184.502 195.725 183.239 198.475C180.418 204.615 180.261 205.094 180.843 205.795C182.239 207.479 183.644 206.063 187.361 199.23C189.494 195.307 190.134 194.411 191.2 193.858C192.317 193.279 194.207 191.109 194.207 190.408C194.207 189.085 192.804 188.884 189.454 189.728ZM198.326 189.792C194.57 191.774 187.155 203.226 188.176 205.467C188.922 207.105 193.15 205.953 193.15 204.111C193.15 202.635 194.36 201.311 195.532 201.501C196.219 201.612 197.426 201.465 198.325 201.16C200.353 200.471 200.443 200.607 199.502 202.924C198.518 205.349 198.636 206.101 200.018 206.222C201.453 206.347 201.632 206.183 203.602 202.962C206.122 198.841 208.055 198.731 205.98 202.826C204.867 205.023 204.944 206.09 206.229 206.239C207.196 206.35 209.689 204.542 209.705 203.718C209.709 203.495 210.004 202.935 210.361 202.472L211.008 201.629L211.258 202.965C211.643 205.014 213.144 206.306 215.138 206.306C217.953 206.306 219.328 205.435 222.635 201.561C224.326 199.58 224.393 199.666 223.419 202.575C222.045 206.681 225.359 206.527 227.501 202.385C228.099 201.229 228.708 201.341 228.708 202.608C228.708 206.739 231.768 206.115 234.734 201.378C235.806 199.665 236.107 199.355 235.931 200.145C234.615 206.053 234.716 206.306 238.368 206.306C242.798 206.305 245.63 203.014 241.701 202.434C239.647 202.13 240.129 200.001 242.376 199.449C244.635 198.894 245.839 196.98 244.198 196.551C242.509 196.109 243.965 194.105 246.569 193.287C248.447 192.698 249.212 191.868 249.065 190.583C248.805 188.308 241.487 189.749 240.617 192.247C240.419 192.816 240.114 193.28 239.939 193.28C239.764 193.28 239.622 193.518 239.622 193.808C239.622 194.099 239.446 194.337 239.232 194.337C238.989 194.337 238.947 194.104 239.122 193.72C241.042 189.484 237.26 189.043 234.511 193.182C233.084 195.333 232.906 195.32 232.404 193.026C231.736 189.972 230.136 190.271 227.652 193.913C226.063 196.242 225.896 196.202 225.975 193.509C226.08 189.981 225.45 189.287 222.434 189.605C219.526 189.911 218.771 190.189 216.981 191.606L215.565 192.728L215.772 191.451C216.413 187.501 212.47 188.993 210.743 193.354C210.138 194.886 209.376 195.745 208.624 195.745C207.578 195.745 207.609 194.876 208.718 193.094C211.134 189.212 208.562 187.791 205.579 191.359C204.127 193.096 203.712 193.284 203.712 192.207C203.712 189.409 201.193 188.279 198.326 189.792ZM179.42 193.517C179.42 194.246 178.419 195.393 177.781 195.393C177.115 195.393 177.192 194.932 178.038 193.856C178.872 192.795 179.42 192.661 179.42 193.517ZM197.947 196.606C197.076 197.937 196.592 197.696 197.271 196.269C197.648 195.481 197.983 195.156 198.198 195.371C198.414 195.586 198.323 196.033 197.947 196.606ZM220.611 195.972C220.611 197 218.232 201.523 217.146 202.561C215.373 204.252 214.635 202.714 216.073 200.321C218.293 196.626 220.611 194.404 220.611 195.972ZM165.64 199.686C165.247 200.398 165.177 200.42 165.06 199.865C164.988 199.516 165.133 198.984 165.384 198.682C166.01 197.928 166.2 198.671 165.64 199.686ZM193.271 213.26C192.659 213.598 191.751 214.17 191.253 214.528C190.356 215.174 190.335 215.171 189.257 214.264C187.084 212.436 183.313 213.494 179.736 216.933L177.484 219.099L177.308 216.805C177.062 213.606 176.672 213.234 173.803 213.455C170.733 213.692 169.699 214.138 167.722 216.075C165.848 217.913 165.441 217.865 165.947 215.869C166.726 212.8 164.722 212.443 161.676 215.108C159.278 217.205 158.938 217.269 159.074 215.595C159.296 212.858 156.714 213.254 154.43 216.307C151.773 219.858 148.198 227.523 148.603 228.798C149.131 230.463 151.498 229.674 153.1 227.299C153.957 226.029 154.142 225.933 155.823 225.89L157.625 225.845L157.4 227.178C156.857 230.39 159.813 230.192 161.678 226.89C162.036 226.258 162.13 226.323 162.826 227.688C164.707 231.375 169.001 230.985 172.743 226.787C173.705 225.708 174.491 224.698 174.491 224.543C174.491 224.388 174.65 224.261 174.844 224.261C175.037 224.261 175.196 224.903 175.196 225.687C175.196 228.651 177.13 230.237 180.156 229.754C181.738 229.501 183.997 228.497 183.997 228.048C183.997 227.879 184.155 227.838 184.349 227.958C184.543 228.077 184.701 228.464 184.701 228.816C184.701 230.801 186.716 230.499 188.237 228.286C189.559 226.365 189.944 226.352 191.907 228.161C194.745 230.778 196.359 228.778 194.607 224.817C193.831 223.062 193.767 223.174 196.381 221.682C200.36 219.409 200.757 215.08 196.791 217.205C194.606 218.376 194.339 218.025 195.791 215.888C197.62 213.196 196.152 211.665 193.271 213.26ZM221.491 213.243C220.421 213.512 219.694 214.283 217.242 217.744C214.277 221.93 213.695 222.578 213.026 222.44C212.569 222.347 212.798 221.655 214.249 218.743C216.197 214.834 216.309 214.367 215.472 213.671C214.517 212.878 213.241 213.964 211.09 217.402C209.531 219.896 208.969 220.532 208.437 220.411C204.304 219.479 198.431 220.886 198.431 222.809C198.431 223.861 203.351 224.052 207.233 223.151C207.661 223.052 207.761 223.47 207.761 225.376C207.761 228.628 208.687 229.689 211.281 229.407C212.249 229.303 213.2 229.204 213.393 229.189C213.587 229.174 214.193 229.268 214.739 229.398C216.326 229.775 217.269 228.999 218.357 226.421C218.898 225.136 220.435 221.87 221.771 219.163C224.566 213.501 224.518 212.479 221.491 213.243ZM229.236 213.654C224.959 215.608 217.176 228.621 219.532 229.882C221.41 230.887 223.141 229.924 224.343 227.205L225.179 225.317H226.961C229.958 225.317 231.843 223.851 233.499 220.229C236.038 214.679 233.97 211.491 229.236 213.654ZM186.901 220.392C188.199 220.388 188.149 220.86 186.478 224.445C184.902 227.824 184.917 227.812 184.169 226.365C183.649 225.361 183.509 225.305 181.783 225.397C178.801 225.554 179.339 222.387 182.813 219.338L184.12 218.189L185.027 219.292C185.645 220.044 186.242 220.394 186.901 220.392ZM171.675 220.048C171.675 222.084 168.644 227.078 167.409 227.078C165.811 227.078 167.077 223.941 170.191 220.184C171.393 218.734 171.675 218.708 171.675 220.048ZM228.556 220.942C227.839 221.66 227.761 220.772 228.444 219.666L228.884 218.953L228.997 219.671C229.058 220.066 228.86 220.639 228.556 220.942Z" fill="#262828"/>
</svg>
